{
  "accessors": [
    {
      "bufferView": 2,
      "componentType": 5126,
      "count": 1940,
      "max": [
        0.6243640184402466,
        0.9163320064544678,
        1.1795530319213867
      ],
      "min": [
        0.2442059963941574,
        -0.923160970211029,
        -0.6626269817352295
      ],
      "type": "VEC3"
    },
    {
      "bufferView": 2,
      "byteOffset": 23280,
      "componentType": 5126,
      "count": 1940,
      "max": [
        1.0,
        1.0,
        1.0
      ],
      "min": [
        -0.916443407535553,
        -1.0,
        -1.0
      ],
      "type": "VEC3"
    },
    {
      "bufferView": 3,
      "componentType": 5126,
      "count": 1940,
      "max": [
        1.0,
        0.9957963824272156,
        0.9958545565605164,
        1.0
      ],
      "min": [
        -1.0,
        -0.9967817664146423,
        -0.9999984502792358,
        -1.0
      ],
      "type": "VEC4"
    },
    {
      "bufferView": 1,
      "componentType": 5126,
      "count": 1940,
      "max": [
        0.9755730032920837,
        1.0
      ],
      "min": [
        0.0,
        0.0
      ],
      "type": "VEC2"
    },
    {
      "bufferView": 0,
      "componentType": 5125,
      "count": 6402,
      "type": "SCALAR"
    },
    {
      "bufferView": 2,
      "byteOffset": 46560,
      "componentType": 5126,
      "count": 2117,
      "max": [
        0.6188420057296753,
        0.9944260120391846,
        1.2415000200271606
      ],
      "min": [
        0.19612999260425568,
        -0.9969180226325989,
        -0.7159289717674255
      ],
      "type": "VEC3"
    },
    {
      "bufferView": 2,
      "byteOffset": 71964,
      "componentType": 5126,
      "count": 2117,
      "max": [
        1.0,
        1.0,
        1.0
      ],
      "min": [
        -1.0,
        -1.0,
        -1.0
      ],
      "type": "VEC3"
    },
    {
      "bufferView": 3,
      "byteOffset": 31040,
      "componentType": 5126,
      "count": 2117,
      "max": [
        1.0,
        0.9968984127044678,
        0.9987766146659851,
        1.0
      ],
      "min": [
        -1.0,
        -0.9968984127044678,
        -1.0,
        1.0
      ],
      "type": "VEC4"
    },
    {
      "bufferView": 1,
      "byteOffset": 15520,
      "componentType": 5126,
      "count": 2117,
      "max": [
        1.0,
        0.9826589822769165
      ],
      "min": [
        0.0,
        0.0
      ],
      "type": "VEC2"
    },
    {
      "bufferView": 0,
      "byteOffset": 25608,
      "componentType": 5125,
      "count": 5376,
      "type": "SCALAR"
    }
  ],
  "asset": {
    "extras": {
      "author": "wanderer (https://sketchfab.com/wanderer2)",
      "license": "CC-BY-4.0 (http://creativecommons.org/licenses/by/4.0/)",
      "source": "https://sketchfab.com/3d-models/spectrum-argb-fan-195f51665e004e8697055d806df157f9",
      "title": "SPECTRUM ARGB FAN"
    },
    "generator": "Sketchfab-15.83.0",
    "version": "2.0"
  },
  "bufferViews": [
    {
      "buffer": 0,
      "byteLength": 47112,
      "name": "floatBufferViews",
      "target": 34963
    },
    {
      "buffer": 0,
      "byteLength": 32456,
      "byteOffset": 47112,
      "byteStride": 8,
      "name": "floatBufferViews",
      "target": 34962
    },
    {
      "buffer": 0,
      "byteLength": 97368,
      "byteOffset": 79568,
      "byteStride": 12,
      "name": "floatBufferViews",
      "target": 34962
    },
    {
      "buffer": 0,
      "byteLength": 64912,
      "byteOffset": 176936,
      "byteStride": 16,
      "name": "floatBufferViews",
      "target": 34962
    }
  ],
  "buffers": [
    {
      "byteLength": 241848,
      "uri": "scene.bin"
    }
  ],
  "images": [
    {
      "uri": "textures/material_baseColor.png"
    },
    {
      "uri": "textures/material_metallicRoughness.png"
    },
    {
      "uri": "textures/material_normal.png"
    },
    {
      "uri": "textures/fan_frame_baseColor.png"
    },
    {
      "uri": "textures/fan_frame_metallicRoughness.png"
    }
  ],
  "materials": [
    {
      "doubleSided": true,
      "name": "material",
      "normalTexture": {
        "index": 2
      },
      "occlusionTexture": {
        "index": 1
      },
      "pbrMetallicRoughness": {
        "baseColorTexture": {
          "index": 0
        },
        "metallicRoughnessTexture": {
          "index": 1
        },
        "roughnessFactor": 0.6
      }
    },
    {
      "doubleSided": true,
      "name": "fan_frame",
      "normalTexture": {
        "index": 2
      },
      "occlusionTexture": {
        "index": 4
      },
      "pbrMetallicRoughness": {
        "baseColorTexture": {
          "index": 3
        },
        "metallicRoughnessTexture": {
          "index": 4
        },
        "roughnessFactor": 0.6
      }
    }
  ],
  "meshes": [
    {
      "name": "Object_0",
      "primitives": [
        {
          "attributes": {
            "NORMAL": 1,
            "POSITION": 0,
            "TANGENT": 2,
            "TEXCOORD_0": 3
          },
          "indices": 4,
          "material": 0,
          "mode": 4
        }
      ]
    },
    {
      "name": "Object_1",
      "primitives": [
        {
          "attributes": {
            "NORMAL": 6,
            "POSITION": 5,
            "TANGENT": 7,
            "TEXCOORD_0": 8
          },
          "indices": 9,
          "material": 1,
          "mode": 4
        }
      ]
    }
  ],
  "nodes": [
    {
      "children": [
        1
      ],
      "matrix": [
        1.0,
        0.0,
        0.0,
        0.0,
        0.0,
        2.220446049250313e-16,
        -1.0,
        0.0,
        0.0,
        1.0,
        2.220446049250313e-16,
        0.0,
        0.0,
        0.0,
        0.0,
        1.0
      ],
      "name": "Sketchfab_model"
    },
    {
      "children": [
        2,
        3
      ],
      "name": "SPECTRUM ARGB FAN.obj.cleaner.materialmerger.gles"
    },
    {
      "mesh": 0,
      "name": "Object_2"
    },
    {
      "mesh": 1,
      "name": "Object_3"
    }
  ],
  "samplers": [
    {
      "magFilter": 9729,
      "minFilter": 9987,
      "wrapS": 10497,
      "wrapT": 10497
    }
  ],
  "scene": 0,
  "scenes": [
    {
      "name": "Sketchfab_Scene",
      "nodes": [
        0
      ]
    }
  ],
  "textures": [
    {
      "sampler": 0,
      "source": 0
    },
    {
      "sampler": 0,
      "source": 1
    },
    {
      "sampler": 0,
      "source": 2
    },
    {
      "sampler": 0,
      "source": 3
    },
    {
      "sampler": 0,
      "source": 4
    }
  ]
}
