{
  "accessors": [
    {
      "bufferView": 2,
      "componentType": 5126,
      "count": 31285,
      "max": [
        1.8679850101470947,
        0.9712839722633362,
        -0.07201100140810013
      ],
      "min": [
        -0.7996119856834412,
        0.3798379898071289,
        -2.726775884628296
      ],
      "type": "VEC3"
    },
    {
      "bufferView": 2,
      "byteOffset": 375420,
      "componentType": 5126,
      "count": 31285,
      "max": [
        1.0,
        1.0,
        1.0
      ],
      "min": [
        -1.0,
        -1.0,
        -1.0
      ],
      "type": "VEC3"
    },
    {
      "bufferView": 1,
      "componentType": 5126,
      "count": 31285,
      "max": [
        0.9359449744224548,
        0.5934889912605286
      ],
      "min": [
        0.7360759973526001,
        0.3342759907245636
      ],
      "type": "VEC2"
    },
    {
      "bufferView": 0,
      "componentType": 5125,
      "count": 174336,
      "type": "SCALAR"
    },
    {
      "bufferView": 2,
      "byteOffset": 750840,
      "componentType": 5126,
      "count": 17778,
      "max": [
        1.7053630352020264,
        0.1207050010561943,
        0.3206689953804016
      ],
      "min": [
        -0.6240190267562866,
        -1.1841050386428833,
        -4.095795154571533
      ],
      "type": "VEC3"
    },
    {
      "bufferView": 2,
      "byteOffset": 964176,
      "componentType": 5126,
      "count": 17778,
      "max": [
        0.9999994039535522,
        0.9999991655349731,
        1.0
      ],
      "min": [
        -0.9999994039535522,
        -0.9999991655349731,
        -1.0
      ],
      "type": "VEC3"
    },
    {
      "bufferView": 1,
      "byteOffset": 250280,
      "componentType": 5126,
      "count": 17778,
      "max": [
        1.0,
        0.9844059944152832
      ],
      "min": [
        -0.0,
        -0.0
      ],
      "type": "VEC2"
    },
    {
      "bufferView": 0,
      "byteOffset": 697344,
      "componentType": 5125,
      "count": 84480,
      "type": "SCALAR"
    },
    {
      "bufferView": 2,
      "byteOffset": 1177512,
      "componentType": 5126,
      "count": 6878,
      "max": [
        1.9639259576797485,
        0.33815500140190125,
        0.0
      ],
      "min": [
        -0.8825809955596924,
        -1.4229120016098022,
        -2.8522510528564453
      ],
      "type": "VEC3"
    },
    {
      "bufferView": 2,
      "byteOffset": 1260048,
      "componentType": 5126,
      "count": 6878,
      "max": [
        1.0,
        1.0,
        1.0
      ],
      "min": [
        -1.0,
        -1.0,
        -1.0
      ],
      "type": "VEC3"
    },
    {
      "bufferView": 1,
      "byteOffset": 392504,
      "componentType": 5126,
      "count": 6878,
      "max": [
        1.0,
        1.0
      ],
      "min": [
        0.5,
        0.0
      ],
      "type": "VEC2"
    },
    {
      "bufferView": 0,
      "byteOffset": 1035264,
      "componentType": 5125,
      "count": 15840,
      "type": "SCALAR"
    },
    {
      "bufferView": 2,
      "byteOffset": 1342584,
      "componentType": 5126,
      "count": 412,
      "max": [
        1.2121909856796265,
        0.36872100830078125,
        -3.418729066848755
      ],
      "min": [
        -0.13084599375724792,
        -1.390895962715149,
        -4.158936977386475
      ],
      "type": "VEC3"
    },
    {
      "bufferView": 2,
      "byteOffset": 1347528,
      "componentType": 5126,
      "count": 412,
      "max": [
        1.0,
        1.0,
        1.0
      ],
      "min": [
        -1.0,
        -1.0,
        -1.0
      ],
      "type": "VEC3"
    },
    {
      "bufferView": 1,
      "byteOffset": 447528,
      "componentType": 5126,
      "count": 412,
      "max": [
        0.992326021194458,
        1.0
      ],
      "min": [
        0.0,
        0.0
      ],
      "type": "VEC2"
    },
    {
      "bufferView": 0,
      "byteOffset": 1098624,
      "componentType": 5125,
      "count": 1116,
      "type": "SCALAR"
    },
    {
      "bufferView": 2,
      "byteOffset": 1352472,
      "componentType": 5126,
      "count": 1512,
      "max": [
        2.0139760971069336,
        1.108747959136963,
        0.03853600099682808
      ],
      "min": [
        -0.9114050269126892,
        0.3600200116634369,
        -2.886845111846924
      ],
      "type": "VEC3"
    },
    {
      "bufferView": 2,
      "byteOffset": 1370616,
      "componentType": 5126,
      "count": 1512,
      "max": [
        1.0,
        1.0,
        1.0
      ],
      "min": [
        -1.0,
        -1.0,
        -1.0
      ],
      "type": "VEC3"
    },
    {
      "bufferView": 1,
      "byteOffset": 450824,
      "componentType": 5126,
      "count": 1512,
      "max": [
        1.0,
        1.0
      ],
      "min": [
        0.0,
        0.0
      ],
      "type": "VEC2"
    },
    {
      "bufferView": 0,
      "byteOffset": 1103088,
      "componentType": 5125,
      "count": 4608,
      "type": "SCALAR"
    }
  ],
  "asset": {
    "extras": {
      "author": "wanderer (https://sketchfab.com/wanderer2)",
      "license": "CC-BY-4.0 (http://creativecommons.org/licenses/by/4.0/)",
      "source": "https://sketchfab.com/3d-models/cooler-master-cpu-cooler-e54651982f524644a2144b52a6b36e89",
      "title": "Cooler Master CPU Cooler"
    },
    "generator": "Sketchfab-15.81.0",
    "version": "2.0"
  },
  "bufferViews": [
    {
      "buffer": 0,
      "byteLength": 1121520,
      "name": "floatBufferViews",
      "target": 34963
    },
    {
      "buffer": 0,
      "byteLength": 462920,
      "byteOffset": 1121520,
      "byteStride": 8,
      "name": "floatBufferViews",
      "target": 34962
    },
    {
      "buffer": 0,
      "byteLength": 1388760,
      "byteOffset": 1584440,
      "byteStride": 12,
      "name": "floatBufferViews",
      "target": 34962
    }
  ],
  "buffers": [
    {
      "byteLength": 2973200,
      "uri": "scene.bin"
    }
  ],
  "images": [
    {
      "uri": "textures/Material.002_metallicRoughness.png"
    }
  ],
  "materials": [
    {
      "doubleSided": true,
      "name": "Material",
      "pbrMetallicRoughness": {
        "baseColorFactor": [
          0.004220366466787754,
          0.004220366466787754,
          0.004220366466787754,
          1.0
        ],
        "metallicFactor": 0.0,
        "roughnessFactor": 0.4529507137545562
      }
    },
    {
      "doubleSided": true,
      "name": "Material.001",
      "pbrMetallicRoughness": {
        "baseColorFactor": [
          0.007712,
          0.007712,
          0.007712,
          1.0
        ],
        "metallicFactor": 0.0,
        "roughnessFactor": 0.45299999999999996
      }
    },
    {
      "doubleSided": true,
      "name": "Material.002",
      "pbrMetallicRoughness": {
        "baseColorFactor": [
          0.7999999999999999,
          0.2767439999999999,
          0.07428599999999994,
          1.0
        ],
        "metallicRoughnessTexture": {
          "index": 0
        },
        "roughnessFactor": 0.565335056259219
      }
    },
    {
      "doubleSided": true,
      "name": "Material.003",
      "pbrMetallicRoughness": {
        "baseColorFactor": [
          0.8,
          0.8,
          0.8,
          1.0
        ],
        "metallicRoughnessTexture": {
          "index": 0
        },
        "roughnessFactor": 0.6384781363143202
      }
    },
    {
      "doubleSided": true,
      "name": "Material.004",
      "pbrMetallicRoughness": {
        "baseColorFactor": [
          0.8,
          0.8,
          0.8,
          1.0
        ],
        "metallicRoughnessTexture": {
          "index": 0
        },
        "roughnessFactor": 0.6
      }
    }
  ],
  "meshes": [
    {
      "name": "Object_0",
      "primitives": [
        {
          "attributes": {
            "NORMAL": 1,
            "POSITION": 0,
            "TEXCOORD_0": 2
          },
          "indices": 3,
          "material": 0,
          "mode": 4
        }
      ]
    },
    {
      "name": "Object_1",
      "primitives": [
        {
          "attributes": {
            "NORMAL": 5,
            "POSITION": 4,
            "TEXCOORD_0": 6
          },
          "indices": 7,
          "material": 2,
          "mode": 4
        }
      ]
    },
    {
      "name": "Object_2",
      "primitives": [
        {
          "attributes": {
            "NORMAL": 9,
            "POSITION": 8,
            "TEXCOORD_0": 10
          },
          "indices": 11,
          "material": 3,
          "mode": 4
        }
      ]
    },
    {
      "name": "Object_3",
      "primitives": [
        {
          "attributes": {
            "NORMAL": 13,
            "POSITION": 12,
            "TEXCOORD_0": 14
          },
          "indices": 15,
          "material": 4,
          "mode": 4
        }
      ]
    },
    {
      "name": "Object_4",
      "primitives": [
        {
          "attributes": {
            "NORMAL": 17,
            "POSITION": 16,
            "TEXCOORD_0": 18
          },
          "indices": 19,
          "material": 1,
          "mode": 4
        }
      ]
    }
  ],
  "nodes": [
    {
      "children": [
        1
      ],
      "matrix": [
        1.0,
        0.0,
        0.0,
        0.0,
        0.0,
        2.220446049250313e-16,
        -1.0,
        0.0,
        0.0,
        1.0,
        2.220446049250313e-16,
        0.0,
        0.0,
        0.0,
        0.0,
        1.0
      ],
      "name": "Sketchfab_model"
    },
    {
      "children": [
        2,
        3,
        4,
        5,
        6
      ],
      "name": "Cooler Master Compact CPU Air Cooler.obj.cleaner.materialmerger.gles"
    },
    {
      "mesh": 0,
      "name": "Object_2"
    },
    {
      "mesh": 1,
      "name": "Object_3"
    },
    {
      "mesh": 2,
      "name": "Object_4"
    },
    {
      "mesh": 3,
      "name": "Object_5"
    },
    {
      "mesh": 4,
      "name": "Object_6"
    }
  ],
  "samplers": [
    {
      "magFilter": 9729,
      "minFilter": 9987,
      "wrapS": 10497,
      "wrapT": 10497
    }
  ],
  "scene": 0,
  "scenes": [
    {
      "name": "Sketchfab_Scene",
      "nodes": [
        0
      ]
    }
  ],
  "textures": [
    {
      "sampler": 0,
      "source": 0
    }
  ]
}
