{
  "accessors": [
    {
      "bufferView": 2,
      "componentType": 5126,
      "count": 4,
      "max": [
        -2.0177390575408936,
        0.734004020690918,
        -0.13386400043964386
      ],
      "min": [
        -2.0177390575408936,
        -0.5099499821662903,
        -0.27243199944496155
      ],
      "type": "VEC3"
    },
    {
      "bufferView": 2,
      "byteOffset": 48,
      "componentType": 5126,
      "count": 4,
      "max": [
        1.0,
        0.0,
        -0.0
      ],
      "min": [
        1.0,
        0.0,
        -0.0
      ],
      "type": "VEC3"
    },
    {
      "bufferView": 1,
      "componentType": 5126,
      "count": 4,
      "max": [
        0.3570080101490021,
        0.8650100231170654
      ],
      "min": [
        0.21404799818992615,
        0.246956005692482
      ],
      "type": "VEC2"
    },
    {
      "bufferView": 0,
      "componentType": 5125,
      "count": 6,
      "type": "SCALAR"
    },
    {
      "bufferView": 2,
      "byteOffset": 96,
      "componentType": 5126,
      "count": 2964,
      "max": [
        2.485837936401367,
        0.8867250084877014,
        0.19151699542999268
      ],
      "min": [
        -1.726294994354248,
        -0.6719449758529663,
        -0.13314199447631836
      ],
      "type": "VEC3"
    },
    {
      "bufferView": 2,
      "byteOffset": 35664,
      "componentType": 5126,
      "count": 2964,
      "max": [
        1.0,
        1.0,
        1.0
      ],
      "min": [
        -1.0,
        -1.0,
        -1.0
      ],
      "type": "VEC3"
    },
    {
      "bufferView": 1,
      "byteOffset": 32,
      "componentType": 5126,
      "count": 2964,
      "max": [
        0.9996309876441956,
        1.0
      ],
      "min": [
        0.0,
        -0.0
      ],
      "type": "VEC2"
    },
    {
      "bufferView": 0,
      "byteOffset": 24,
      "componentType": 5125,
      "count": 4584,
      "type": "SCALAR"
    },
    {
      "bufferView": 2,
      "byteOffset": 71232,
      "componentType": 5126,
      "count": 2517,
      "max": [
        2.347805976867676,
        0.8215019702911377,
        0.3733159899711609
      ],
      "min": [
        -1.6227819919586182,
        -0.6345930099487305,
        0.19314199686050415
      ],
      "type": "VEC3"
    },
    {
      "bufferView": 2,
      "byteOffset": 101436,
      "componentType": 5126,
      "count": 2517,
      "max": [
        1.0,
        1.0,
        0.9990009665489197
      ],
      "min": [
        -1.0,
        -1.0,
        -1.0
      ],
      "type": "VEC3"
    },
    {
      "bufferView": 1,
      "byteOffset": 23744,
      "componentType": 5126,
      "count": 2517,
      "max": [
        0.9903799891471863,
        1.0
      ],
      "min": [
        -0.0,
        0.0
      ],
      "type": "VEC2"
    },
    {
      "bufferView": 0,
      "byteOffset": 18360,
      "componentType": 5125,
      "count": 7416,
      "type": "SCALAR"
    },
    {
      "bufferView": 2,
      "byteOffset": 131640,
      "componentType": 5126,
      "count": 736,
      "max": [
        2.434748888015747,
        0.9352930188179016,
        0.3515099883079529
      ],
      "min": [
        -1.7201969623565674,
        -0.7330899834632874,
        0.19129300117492676
      ],
      "type": "VEC3"
    },
    {
      "bufferView": 2,
      "byteOffset": 140472,
      "componentType": 5126,
      "count": 736,
      "max": [
        0.999863862991333,
        0.999863862991333,
        1.0
      ],
      "min": [
        -0.999863862991333,
        -0.999863862991333,
        -1.0
      ],
      "type": "VEC3"
    },
    {
      "bufferView": 1,
      "byteOffset": 43880,
      "componentType": 5126,
      "count": 736,
      "max": [
        1.0,
        0.99583500623703
      ],
      "min": [
        0.0,
        -0.0
      ],
      "type": "VEC2"
    },
    {
      "bufferView": 0,
      "byteOffset": 48024,
      "componentType": 5125,
      "count": 2520,
      "type": "SCALAR"
    },
    {
      "bufferView": 2,
      "byteOffset": 149304,
      "componentType": 5126,
      "count": 450,
      "max": [
        2.1627840995788574,
        0.8188199996948242,
        -0.23451100289821625
      ],
      "min": [
        -1.8925739526748657,
        -0.9649270176887512,
        -0.26136600971221924
      ],
      "type": "VEC3"
    },
    {
      "bufferView": 2,
      "byteOffset": 154704,
      "componentType": 5126,
      "count": 450,
      "max": [
        0.9999727010726929,
        0.9999988079071045,
        1.0
      ],
      "min": [
        -0.9999923706054688,
        -1.0,
        -0.0
      ],
      "type": "VEC3"
    },
    {
      "bufferView": 1,
      "byteOffset": 49768,
      "componentType": 5126,
      "count": 450,
      "max": [
        0.9846420288085938,
        0.9641500115394592
      ],
      "min": [
        0.06573300063610077,
        0.03526800125837326
      ],
      "type": "VEC2"
    },
    {
      "bufferView": 0,
      "byteOffset": 58104,
      "componentType": 5125,
      "count": 672,
      "type": "SCALAR"
    },
    {
      "bufferView": 2,
      "byteOffset": 160104,
      "componentType": 5126,
      "count": 226,
      "max": [
        2.1627840995788574,
        0.8188199996948242,
        -0.26136600971221924
      ],
      "min": [
        -1.8925739526748657,
        -0.9649270176887512,
        -0.27031800150871277
      ],
      "type": "VEC3"
    },
    {
      "bufferView": 2,
      "byteOffset": 162816,
      "componentType": 5126,
      "count": 226,
      "max": [
        0.7494015097618103,
        0.7161970734596252,
        -0.11309976875782013
      ],
      "min": [
        -0.6753922700881958,
        -0.9902584552764893,
        -1.0
      ],
      "type": "VEC3"
    },
    {
      "bufferView": 1,
      "byteOffset": 53368,
      "componentType": 5126,
      "count": 226,
      "max": [
        0.9798650145530701,
        0.9702060222625732
      ],
      "min": [
        0.015495000407099724,
        0.028544999659061432
      ],
      "type": "VEC2"
    },
    {
      "bufferView": 0,
      "byteOffset": 60792,
      "componentType": 5125,
      "count": 336,
      "type": "SCALAR"
    },
    {
      "bufferView": 2,
      "byteOffset": 165528,
      "componentType": 5126,
      "count": 442,
      "max": [
        -2.020179033279419,
        0.9000849723815918,
        0.3880000114440918
      ],
      "min": [
        -2.2425808906555176,
        -0.9539380073547363,
        -0.32592400908470154
      ],
      "type": "VEC3"
    },
    {
      "bufferView": 2,
      "byteOffset": 170832,
      "componentType": 5126,
      "count": 442,
      "max": [
        1.0,
        1.0,
        1.0
      ],
      "min": [
        -1.0,
        -1.0,
        -1.0
      ],
      "type": "VEC3"
    },
    {
      "bufferView": 1,
      "byteOffset": 55176,
      "componentType": 5126,
      "count": 442,
      "max": [
        0.9105100035667419,
        1.0
      ],
      "min": [
        0.0,
        0.0
      ],
      "type": "VEC2"
    },
    {
      "bufferView": 0,
      "byteOffset": 62136,
      "componentType": 5125,
      "count": 894,
      "type": "SCALAR"
    },
    {
      "bufferView": 2,
      "byteOffset": 176136,
      "componentType": 5126,
      "count": 2872,
      "max": [
        2.726285934448242,
        0.9729340076446533,
        0.37328898906707764
      ],
      "min": [
        -2.011733055114746,
        -0.7474049925804138,
        -0.3176569938659668
      ],
      "type": "VEC3"
    },
    {
      "bufferView": 2,
      "byteOffset": 210600,
      "componentType": 5126,
      "count": 2872,
      "max": [
        1.0,
        1.0,
        1.0
      ],
      "min": [
        -1.0,
        -1.0,
        -1.0
      ],
      "type": "VEC3"
    },
    {
      "bufferView": 1,
      "byteOffset": 58712,
      "componentType": 5126,
      "count": 2872,
      "max": [
        0.9871280193328857,
        0.9862980246543884
      ],
      "min": [
        0.012872000224888325,
        0.012872000224888325
      ],
      "type": "VEC2"
    },
    {
      "bufferView": 0,
      "byteOffset": 65712,
      "componentType": 5125,
      "count": 6384,
      "type": "SCALAR"
    }
  ],
  "asset": {
    "extras": {
      "author": "wanderer (https://sketchfab.com/wanderer2)",
      "license": "CC-BY-4.0 (http://creativecommons.org/licenses/by/4.0/)",
      "source": "https://sketchfab.com/3d-models/gpu-amd-rx-6700-xt-648b333a485040f68c6d47d166ee7532",
      "title": "GPU AMD RX 6700 XT"
    },
    "generator": "Sketchfab-15.85.0",
    "version": "2.0"
  },
  "bufferViews": [
    {
      "buffer": 0,
      "byteLength": 91248,
      "name": "floatBufferViews",
      "target": 34963
    },
    {
      "buffer": 0,
      "byteLength": 81688,
      "byteOffset": 91248,
      "byteStride": 8,
      "name": "floatBufferViews",
      "target": 34962
    },
    {
      "buffer": 0,
      "byteLength": 245064,
      "byteOffset": 172936,
      "byteStride": 12,
      "name": "floatBufferViews",
      "target": 34962
    }
  ],
  "buffers": [
    {
      "byteLength": 418000,
      "uri": "scene.bin"
    }
  ],
  "images": [
    {
      "uri": "textures/Material_baseColor.png"
    },
    {
      "uri": "textures/cooler_baseColor.png"
    },
    {
      "uri": "textures/cooler_metallicRoughness.png"
    },
    {
      "uri": "textures/material_baseColor.png"
    },
    {
      "uri": "textures/material_metallicRoughness.png"
    },
    {
      "uri": "textures/fan_frame_baseColor.png"
    },
    {
      "uri": "textures/fan_frame_metallicRoughness.png"
    },
    {
      "uri": "textures/gpu_plate_1_baseColor.jpeg"
    },
    {
      "uri": "textures/gpu_plate_1_metallicRoughness.png"
    },
    {
      "uri": "textures/gpu_plate_2_baseColor.jpeg"
    },
    {
      "uri": "textures/gpu_plate_2_metallicRoughness.png"
    },
    {
      "uri": "textures/logo_red_baseColor.png"
    },
    {
      "uri": "textures/logo_red_metallicRoughness.png"
    },
    {
      "uri": "textures/logo_red_emissive.png"
    },
    {
      "uri": "textures/side_plate_baseColor.png"
    },
    {
      "uri": "textures/side_plate_metallicRoughness.png"
    }
  ],
  "materials": [
    {
      "doubleSided": true,
      "name": "Material",
      "pbrMetallicRoughness": {
        "baseColorTexture": {
          "index": 0
        },
        "metallicFactor": 0.0,
        "roughnessFactor": 0.8011823178082373
      }
    },
    {
      "doubleSided": true,
      "name": "cooler",
      "pbrMetallicRoughness": {
        "baseColorTexture": {
          "index": 1
        },
        "metallicRoughnessTexture": {
          "index": 2
        },
        "roughnessFactor": 0.6
      }
    },
    {
      "doubleSided": true,
      "name": "material",
      "pbrMetallicRoughness": {
        "baseColorTexture": {
          "index": 3
        },
        "metallicRoughnessTexture": {
          "index": 4
        },
        "roughnessFactor": 0.6
      }
    },
    {
      "doubleSided": true,
      "name": "fan_frame",
      "pbrMetallicRoughness": {
        "baseColorTexture": {
          "index": 5
        },
        "metallicRoughnessTexture": {
          "index": 6
        },
        "roughnessFactor": 0.6
      }
    },
    {
      "doubleSided": true,
      "name": "gpu_plate_1",
      "pbrMetallicRoughness": {
        "baseColorTexture": {
          "index": 7
        },
        "metallicFactor": 0.345857885185149,
        "metallicRoughnessTexture": {
          "index": 8
        }
      }
    },
    {
      "doubleSided": true,
      "name": "gpu_plate_2",
      "pbrMetallicRoughness": {
        "baseColorTexture": {
          "index": 9
        },
        "metallicRoughnessTexture": {
          "index": 10
        }
      }
    },
    {
      "doubleSided": true,
      "emissiveFactor": [
        1.0,
        1.0,
        1.0
      ],
      "emissiveTexture": {
        "index": 13
      },
      "name": "logo_red",
      "pbrMetallicRoughness": {
        "baseColorTexture": {
          "index": 11
        },
        "metallicRoughnessTexture": {
          "index": 12
        },
        "roughnessFactor": 0.6
      }
    },
    {
      "doubleSided": true,
      "name": "side_plate",
      "pbrMetallicRoughness": {
        "baseColorTexture": {
          "index": 14
        },
        "metallicRoughnessTexture": {
          "index": 15
        },
        "roughnessFactor": 0.6
      }
    }
  ],
  "meshes": [
    {
      "name": "Object_0",
      "primitives": [
        {
          "attributes": {
            "NORMAL": 1,
            "POSITION": 0,
            "TEXCOORD_0": 2
          },
          "indices": 3,
          "material": 0,
          "mode": 4
        }
      ]
    },
    {
      "name": "Object_1",
      "primitives": [
        {
          "attributes": {
            "NORMAL": 5,
            "POSITION": 4,
            "TEXCOORD_0": 6
          },
          "indices": 7,
          "material": 1,
          "mode": 4
        }
      ]
    },
    {
      "name": "Object_2",
      "primitives": [
        {
          "attributes": {
            "NORMAL": 9,
            "POSITION": 8,
            "TEXCOORD_0": 10
          },
          "indices": 11,
          "material": 2,
          "mode": 4
        }
      ]
    },
    {
      "name": "Object_3",
      "primitives": [
        {
          "attributes": {
            "NORMAL": 13,
            "POSITION": 12,
            "TEXCOORD_0": 14
          },
          "indices": 15,
          "material": 3,
          "mode": 4
        }
      ]
    },
    {
      "name": "Object_4",
      "primitives": [
        {
          "attributes": {
            "NORMAL": 17,
            "POSITION": 16,
            "TEXCOORD_0": 18
          },
          "indices": 19,
          "material": 4,
          "mode": 4
        }
      ]
    },
    {
      "name": "Object_5",
      "primitives": [
        {
          "attributes": {
            "NORMAL": 21,
            "POSITION": 20,
            "TEXCOORD_0": 22
          },
          "indices": 23,
          "material": 5,
          "mode": 4
        }
      ]
    },
    {
      "name": "Object_6",
      "primitives": [
        {
          "attributes": {
            "NORMAL": 25,
            "POSITION": 24,
            "TEXCOORD_0": 26
          },
          "indices": 27,
          "material": 7,
          "mode": 4
        }
      ]
    },
    {
      "name": "Object_7",
      "primitives": [
        {
          "attributes": {
            "NORMAL": 29,
            "POSITION": 28,
            "TEXCOORD_0": 30
          },
          "indices": 31,
          "material": 6,
          "mode": 4
        }
      ]
    }
  ],
  "nodes": [
    {
      "children": [
        1
      ],
      "matrix": [
        1.0,
        1.6081226229577294e-16,
        -1.608122622957729e-16,
        0.0,
        -1.6081226229577292e-16,
        1.0,
        4.440892098500626e-16,
        0.0,
        1.6081226229577292e-16,
        -4.440892098500626e-16,
        1.0,
        0.0,
        0.0,
        0.0,
        0.0,
        1.0
      ],
      "name": "Sketchfab_model"
    },
    {
      "children": [
        2,
        3,
        4,
        5,
        6,
        7,
        8,
        9
      ],
      "name": "AMD Radeon .obj.cleaner.materialmerger.gles"
    },
    {
      "mesh": 0,
      "name": "Object_2"
    },
    {
      "mesh": 1,
      "name": "Object_3"
    },
    {
      "mesh": 2,
      "name": "Object_4"
    },
    {
      "mesh": 3,
      "name": "Object_5"
    },
    {
      "mesh": 4,
      "name": "Object_6"
    },
    {
      "mesh": 5,
      "name": "Object_7"
    },
    {
      "mesh": 6,
      "name": "Object_8"
    },
    {
      "mesh": 7,
      "name": "Object_9"
    }
  ],
  "samplers": [
    {
      "magFilter": 9729,
      "minFilter": 9987,
      "wrapS": 10497,
      "wrapT": 10497
    }
  ],
  "scene": 0,
  "scenes": [
    {
      "name": "Sketchfab_Scene",
      "nodes": [
        0
      ]
    }
  ],
  "textures": [
    {
      "sampler": 0,
      "source": 0
    },
    {
      "sampler": 0,
      "source": 1
    },
    {
      "sampler": 0,
      "source": 2
    },
    {
      "sampler": 0,
      "source": 3
    },
    {
      "sampler": 0,
      "source": 4
    },
    {
      "sampler": 0,
      "source": 5
    },
    {
      "sampler": 0,
      "source": 6
    },
    {
      "sampler": 0,
      "source": 7
    },
    {
      "sampler": 0,
      "source": 8
    },
    {
      "sampler": 0,
      "source": 9
    },
    {
      "sampler": 0,
      "source": 10
    },
    {
      "sampler": 0,
      "source": 11
    },
    {
      "sampler": 0,
      "source": 12
    },
    {
      "sampler": 0,
      "source": 13
    },
    {
      "sampler": 0,
      "source": 14
    },
    {
      "sampler": 0,
      "source": 15
    }
  ]
}
