{
  "accessors": [
    {
      "bufferView": 2,
      "componentType": 5126,
      "count": 65532,
      "max": [
        2.265225887298584,
        2.2530741691589355,
        0.3354940116405487
      ],
      "min": [
        -2.2066640853881836,
        -2.254460573196411,
        -0.28488391637802124
      ],
      "type": "VEC3"
    },
    {
      "bufferView": 2,
      "byteOffset": 786384,
      "componentType": 5126,
      "count": 65532,
      "max": [
        0.9986987113952637,
        0.9981403946876526,
        0.8718034625053406
      ],
      "min": [
        -0.9986592531204224,
        -0.9922080636024475,
        -0.871797502040863
      ],
      "type": "VEC3"
    },
    {
      "bufferView": 1,
      "componentType": 5126,
      "count": 65532,
      "max": [
        0.0,
        0.0
      ],
      "min": [
        0.0,
        0.0
      ],
      "type": "VEC2"
    },
    {
      "bufferView": 0,
      "componentType": 5125,
      "count": 98298,
      "type": "SCALAR"
    },
    {
      "bufferView": 2,
      "byteOffset": 1572768,
      "componentType": 5126,
      "count": 16900,
      "max": [
        2.2518789768218994,
        2.0339534282684326,
        0.3354940116405487
      ],
      "min": [
        -0.8771215677261353,
        -2.150411605834961,
        -0.24080966413021088
      ],
      "type": "VEC3"
    },
    {
      "bufferView": 2,
      "byteOffset": 1775568,
      "componentType": 5126,
      "count": 16900,
      "max": [
        0.6888201236724854,
        0.35964202880859375,
        0.8718001246452332
      ],
      "min": [
        -0.7673091292381287,
        -0.7676226496696472,
        0.6365021467208862
      ],
      "type": "VEC3"
    },
    {
      "bufferView": 1,
      "byteOffset": 524256,
      "componentType": 5126,
      "count": 16900,
      "max": [
        0.0,
        0.0
      ],
      "min": [
        0.0,
        0.0
      ],
      "type": "VEC2"
    },
    {
      "bufferView": 0,
      "byteOffset": 393192,
      "componentType": 5125,
      "count": 25350,
      "type": "SCALAR"
    },
    {
      "bufferView": 2,
      "byteOffset": 1978368,
      "componentType": 5126,
      "count": 32660,
      "max": [
        2.5157394409179688,
        2.516507625579834,
        0.5390796661376953
      ],
      "min": [
        -2.5194649696350098,
        -2.5186972618103027,
        -0.5102542042732239
      ],
      "type": "VEC3"
    },
    {
      "bufferView": 2,
      "byteOffset": 2370288,
      "componentType": 5126,
      "count": 32660,
      "max": [
        1.0,
        1.0,
        1.0
      ],
      "min": [
        -1.0,
        -1.0,
        -1.0
      ],
      "type": "VEC3"
    },
    {
      "bufferView": 1,
      "byteOffset": 659456,
      "componentType": 5126,
      "count": 32660,
      "max": [
        1.0,
        1.0
      ],
      "min": [
        0.0,
        0.0
      ],
      "type": "VEC2"
    },
    {
      "bufferView": 0,
      "byteOffset": 494592,
      "componentType": 5125,
      "count": 59844,
      "type": "SCALAR"
    }
  ],
  "asset": {
    "extras": {
      "author": "Temoor (https://sketchfab.com/Temooor)",
      "license": "CC-BY-4.0 (http://creativecommons.org/licenses/by/4.0/)",
      "source": "https://sketchfab.com/3d-models/computer-fan-5360bd331c5848eeb9338b4f894e78e5",
      "title": "computer fan"
    },
    "generator": "Sketchfab-12.66.0",
    "version": "2.0"
  },
  "bufferViews": [
    {
      "buffer": 0,
      "byteLength": 733968,
      "name": "floatBufferViews",
      "target": 34963
    },
    {
      "buffer": 0,
      "byteLength": 920736,
      "byteOffset": 733968,
      "byteStride": 8,
      "name": "floatBufferViews",
      "target": 34962
    },
    {
      "buffer": 0,
      "byteLength": 2762208,
      "byteOffset": 1654704,
      "byteStride": 12,
      "name": "floatBufferViews",
      "target": 34962
    }
  ],
  "buffers": [
    {
      "byteLength": 4416912,
      "uri": "scene.bin"
    }
  ],
  "materials": [
    {
      "doubleSided": true,
      "name": "Scene_-_Root",
      "pbrMetallicRoughness": {
        "metallicFactor": 0.0,
        "roughnessFactor": 0.6
      }
    }
  ],
  "meshes": [
    {
      "name": "Object_0",
      "primitives": [
        {
          "attributes": {
            "NORMAL": 1,
            "POSITION": 0,
            "TEXCOORD_0": 2
          },
          "indices": 3,
          "material": 0,
          "mode": 4
        }
      ]
    },
    {
      "name": "Object_1",
      "primitives": [
        {
          "attributes": {
            "NORMAL": 5,
            "POSITION": 4,
            "TEXCOORD_0": 6
          },
          "indices": 7,
          "material": 0,
          "mode": 4
        }
      ]
    },
    {
      "name": "Object_2",
      "primitives": [
        {
          "attributes": {
            "NORMAL": 9,
            "POSITION": 8,
            "TEXCOORD_0": 10
          },
          "indices": 11,
          "material": 0,
          "mode": 4
        }
      ]
    }
  ],
  "nodes": [
    {
      "children": [
        1
      ],
      "matrix": [
        0.003445672569796443,
        0.9999940395355225,
        2.2204550801279366e-16,
        0.0,
        4.4380428914242995e-16,
        2.20517618140525e-16,
        -1.0,
        0.0,
        -0.9999940395355225,
        0.003445672569796443,
        -4.4304181664614905e-16,
        0.0,
        4.3340892261767294e-06,
        -7.77371406002203e-06,
        -1.7261112672577528e-21,
        1.0
      ],
      "name": "Sketchfab_model"
    },
    {
      "children": [
        2
      ],
      "name": "root"
    },
    {
      "children": [
        3,
        6
      ],
      "matrix": [
        1.0,
        0.0,
        0.0,
        0.0,
        0.0,
        2.220446049250313e-16,
        1.0,
        0.0,
        0.0,
        -1.0,
        2.220446049250313e-16,
        0.0,
        0.0,
        0.0,
        0.0,
        1.0
      ],
      "name": "GLTF_SceneRootNode"
    },
    {
      "children": [
        4,
        5
      ],
      "name": "Cylinder.001_0"
    },
    {
      "mesh": 0,
      "name": "Object_4"
    },
    {
      "mesh": 1,
      "name": "Object_5"
    },
    {
      "children": [
        7
      ],
      "matrix": [
        0.9887800812721252,
        0.0,
        0.0,
        0.0,
        0.0,
        0.9887800812721252,
        0.0,
        0.0,
        0.0,
        0.0,
        0.9887800812721252,
        0.0,
        0.001841921592131257,
        0.0010825934587046504,
        -0.013363301753997803,
        1.0
      ],
      "name": "Plane.001_2"
    },
    {
      "mesh": 2,
      "name": "Object_7"
    }
  ],
  "scene": 0,
  "scenes": [
    {
      "name": "Sketchfab_Scene",
      "nodes": [
        0
      ]
    }
  ]
}
