{
  "accessors": [
    {
      "bufferView": 2,
      "componentType": 5126,
      "count": 1622,
      "max": [
        3.916409969329834,
        2.7197999954223633,
        -0.02199999988079071
      ],
      "min": [
        -3.887929916381836,
        -2.7198100090026855,
        -0.4553999900817871
      ],
      "type": "VEC3"
    },
    {
      "bufferView": 2,
      "byteOffset": 19464,
      "componentType": 5126,
      "count": 1622,
      "max": [
        1.0,
        1.0,
        1.0
      ],
      "min": [
        -1.0,
        -1.0,
        -1.0
      ],
      "type": "VEC3"
    },
    {
      "bufferView": 3,
      "componentType": 5126,
      "count": 1622,
      "max": [
        1.0,
        1.0,
        1.0,
        1.0
      ],
      "min": [
        -0.980785608291626,
        -1.0,
        -1.0,
        1.0
      ],
      "type": "VEC4"
    },
    {
      "bufferView": 1,
      "componentType": 5126,
      "count": 1622,
      "max": [
        0.9266899824142456,
        0.9864599704742432
      ],
      "min": [
        0.5914999842643738,
        0.2682499885559082
      ],
      "type": "VEC2"
    },
    {
      "bufferView": 0,
      "componentType": 5125,
      "count": 3252,
      "type": "SCALAR"
    },
    {
      "bufferView": 2,
      "byteOffset": 38928,
      "componentType": 5126,
      "count": 1824,
      "max": [
        3.6828999519348145,
        2.6215500831604004,
        0.040709998458623886
      ],
      "min": [
        -3.844170093536377,
        -2.529409885406494,
        -0.20738999545574188
      ],
      "type": "VEC3"
    },
    {
      "bufferView": 2,
      "byteOffset": 60816,
      "componentType": 5126,
      "count": 1824,
      "max": [
        1.0,
        1.0,
        1.0
      ],
      "min": [
        -1.0,
        -1.0,
        -1.0
      ],
      "type": "VEC3"
    },
    {
      "bufferView": 3,
      "byteOffset": 25952,
      "componentType": 5126,
      "count": 1824,
      "max": [
        1.0,
        1.0,
        1.0,
        1.0
      ],
      "min": [
        -1.0,
        -1.0,
        -1.0,
        -1.0
      ],
      "type": "VEC4"
    },
    {
      "bufferView": 1,
      "byteOffset": 12976,
      "componentType": 5126,
      "count": 1824,
      "max": [
        0.5470200181007385,
        0.8981000185012817
      ],
      "min": [
        0.014039999805390835,
        0.23571999371051788
      ],
      "type": "VEC2"
    },
    {
      "bufferView": 0,
      "byteOffset": 13008,
      "componentType": 5125,
      "count": 5640,
      "type": "SCALAR"
    },
    {
      "bufferView": 2,
      "byteOffset": 82704,
      "componentType": 5126,
      "count": 1252,
      "max": [
        2.6494300365448,
        2.4745700359344482,
        0.012260000221431255
      ],
      "min": [
        -2.365230083465576,
        -2.252609968185425,
        -0.3528999984264374
      ],
      "type": "VEC3"
    },
    {
      "bufferView": 2,
      "byteOffset": 97728,
      "componentType": 5126,
      "count": 1252,
      "max": [
        0.9807851314544678,
        0.9807855486869812,
        1.0
      ],
      "min": [
        -0.9807855486869812,
        -0.9807855486869812,
        -1.0
      ],
      "type": "VEC3"
    },
    {
      "bufferView": 1,
      "byteOffset": 27568,
      "componentType": 5126,
      "count": 1252,
      "max": [
        0.11305999755859375,
        0.993910014629364
      ],
      "min": [
        0.07354000210762024,
        0.9100099802017212
      ],
      "type": "VEC2"
    },
    {
      "bufferView": 0,
      "byteOffset": 35568,
      "componentType": 5125,
      "count": 2304,
      "type": "SCALAR"
    },
    {
      "bufferView": 2,
      "byteOffset": 112752,
      "componentType": 5126,
      "count": 332,
      "max": [
        3.895940065383911,
        2.698889970779419,
        0.04699999839067459
      ],
      "min": [
        -3.8661201000213623,
        -2.698889970779419,
        -0.21985000371932983
      ],
      "type": "VEC3"
    },
    {
      "bufferView": 2,
      "byteOffset": 116736,
      "componentType": 5126,
      "count": 332,
      "max": [
        1.0,
        1.0,
        0.9999997615814209
      ],
      "min": [
        -1.0,
        -1.0,
        -1.0
      ],
      "type": "VEC3"
    },
    {
      "bufferView": 3,
      "byteOffset": 55136,
      "componentType": 5126,
      "count": 332,
      "max": [
        1.0,
        1.0,
        1.0,
        1.0
      ],
      "min": [
        -0.5219220519065857,
        -1.0,
        -1.0,
        -1.0
      ],
      "type": "VEC4"
    },
    {
      "bufferView": 1,
      "byteOffset": 37584,
      "componentType": 5126,
      "count": 332,
      "max": [
        0.5420899987220764,
        0.9878100156784058
      ],
      "min": [
        0.01817999966442585,
        0.6234800219535828
      ],
      "type": "VEC2"
    },
    {
      "bufferView": 0,
      "byteOffset": 44784,
      "componentType": 5125,
      "count": 612,
      "type": "SCALAR"
    },
    {
      "bufferView": 4,
      "componentType": 5126,
      "count": 5,
      "max": [
        1.0,
        0.0,
        0.0,
        0.0,
        0.0,
        1.0,
        0.0,
        0.0,
        0.0,
        1.0,
        1.0,
        0.0,
        0.0,
        0.0,
        0.0,
        1.0
      ],
      "min": [
        1.0,
        0.0,
        0.0,
        0.0,
        0.0,
        0.0,
        -1.0,
        0.0,
        0.0,
        0.0,
        0.0,
        0.0,
        -3.0,
        0.0,
        0.0,
        1.0
      ],
      "type": "MAT4"
    },
    {
      "bufferView": 5,
      "componentType": 5126,
      "count": 1,
      "max": [
        0.0
      ],
      "min": [
        0.0
      ],
      "type": "SCALAR"
    },
    {
      "bufferView": 7,
      "componentType": 5126,
      "count": 1,
      "max": [
        0.7071067690849304,
        0.0,
        0.0,
        0.7071067690849304
      ],
      "min": [
        0.7071067690849304,
        0.0,
        0.0,
        0.7071067690849304
      ],
      "type": "VEC4"
    },
    {
      "bufferView": 5,
      "byteOffset": 4,
      "componentType": 5126,
      "count": 32,
      "max": [
        3.333329916000366
      ],
      "min": [
        0.0
      ],
      "type": "SCALAR"
    },
    {
      "bufferView": 6,
      "componentType": 5126,
      "count": 32,
      "max": [
        1.0,
        0.0,
        2.0
      ],
      "min": [
        1.0,
        0.0,
        0.0
      ],
      "type": "VEC3"
    },
    {
      "bufferView": 5,
      "byteOffset": 132,
      "componentType": 5126,
      "count": 1,
      "max": [
        0.0
      ],
      "min": [
        0.0
      ],
      "type": "SCALAR"
    },
    {
      "bufferView": 7,
      "byteOffset": 16,
      "componentType": 5126,
      "count": 1,
      "max": [
        0.7071067690849304,
        0.0,
        0.0,
        0.7071067690849304
      ],
      "min": [
        0.7071067690849304,
        0.0,
        0.0,
        0.7071067690849304
      ],
      "type": "VEC4"
    },
    {
      "bufferView": 5,
      "byteOffset": 136,
      "componentType": 5126,
      "count": 32,
      "max": [
        3.333329916000366
      ],
      "min": [
        0.0
      ],
      "type": "SCALAR"
    },
    {
      "bufferView": 6,
      "byteOffset": 384,
      "componentType": 5126,
      "count": 32,
      "max": [
        2.0,
        0.0,
        4.0
      ],
      "min": [
        2.0,
        0.0,
        0.0
      ],
      "type": "VEC3"
    },
    {
      "bufferView": 5,
      "byteOffset": 264,
      "componentType": 5126,
      "count": 1,
      "max": [
        0.0
      ],
      "min": [
        0.0
      ],
      "type": "SCALAR"
    },
    {
      "bufferView": 7,
      "byteOffset": 32,
      "componentType": 5126,
      "count": 1,
      "max": [
        0.7071067690849304,
        0.0,
        0.0,
        0.7071067690849304
      ],
      "min": [
        0.7071067690849304,
        0.0,
        0.0,
        0.7071067690849304
      ],
      "type": "VEC4"
    },
    {
      "bufferView": 5,
      "byteOffset": 268,
      "componentType": 5126,
      "count": 31,
      "max": [
        3.333329916000366
      ],
      "min": [
        0.0
      ],
      "type": "SCALAR"
    },
    {
      "bufferView": 6,
      "byteOffset": 768,
      "componentType": 5126,
      "count": 31,
      "max": [
        3.0,
        0.0,
        5.0
      ],
      "min": [
        3.0,
        0.0,
        0.0
      ],
      "type": "VEC3"
    },
    {
      "bufferView": 5,
      "byteOffset": 392,
      "componentType": 5126,
      "count": 1,
      "max": [
        0.0
      ],
      "min": [
        0.0
      ],
      "type": "SCALAR"
    },
    {
      "bufferView": 7,
      "byteOffset": 48,
      "componentType": 5126,
      "count": 1,
      "max": [
        0.7071067690849304,
        0.0,
        0.0,
        0.7071067690849304
      ],
      "min": [
        0.7071067690849304,
        0.0,
        0.0,
        0.7071067690849304
      ],
      "type": "VEC4"
    }
  ],
  "animations": [
    {
      "channels": [
        {
          "sampler": 0,
          "target": {
            "node": 4,
            "path": "rotation"
          }
        },
        {
          "sampler": 1,
          "target": {
            "node": 7,
            "path": "translation"
          }
        },
        {
          "sampler": 2,
          "target": {
            "node": 7,
            "path": "rotation"
          }
        },
        {
          "sampler": 3,
          "target": {
            "node": 10,
            "path": "translation"
          }
        },
        {
          "sampler": 4,
          "target": {
            "node": 10,
            "path": "rotation"
          }
        },
        {
          "sampler": 5,
          "target": {
            "node": 13,
            "path": "translation"
          }
        },
        {
          "sampler": 6,
          "target": {
            "node": 13,
            "path": "rotation"
          }
        }
      ],
      "name": "Animation",
      "samplers": [
        {
          "input": 20,
          "interpolation": "LINEAR",
          "output": 21
        },
        {
          "input": 22,
          "interpolation": "LINEAR",
          "output": 23
        },
        {
          "input": 24,
          "interpolation": "LINEAR",
          "output": 25
        },
        {
          "input": 26,
          "interpolation": "LINEAR",
          "output": 27
        },
        {
          "input": 28,
          "interpolation": "LINEAR",
          "output": 29
        },
        {
          "input": 30,
          "interpolation": "LINEAR",
          "output": 31
        },
        {
          "input": 32,
          "interpolation": "LINEAR",
          "output": 33
        }
      ]
    }
  ],
  "asset": {
    "extras": {
      "author": "isnainul (https://sketchfab.com/isnainul)",
      "license": "CC-BY-4.0 (http://creativecommons.org/licenses/by/4.0/)",
      "source": "https://sketchfab.com/3d-models/ssd-solid-state-drive-ad215e54c381456895e21db5062f8714",
      "title": "SSD Solid-State Drive"
    },
    "generator": "Sketchfab-12.68.0",
    "version": "2.0"
  },
  "bufferViews": [
    {
      "buffer": 0,
      "byteLength": 47232,
      "name": "floatBufferViews",
      "target": 34963
    },
    {
      "buffer": 0,
      "byteLength": 40240,
      "byteOffset": 47232,
      "byteStride": 8,
      "name": "floatBufferViews",
      "target": 34962
    },
    {
      "buffer": 0,
      "byteLength": 120720,
      "byteOffset": 87472,
      "byteStride": 12,
      "name": "floatBufferViews",
      "target": 34962
    },
    {
      "buffer": 0,
      "byteLength": 60448,
      "byteOffset": 208192,
      "byteStride": 16,
      "name": "floatBufferViews",
      "target": 34962
    },
    {
      "buffer": 0,
      "byteLength": 320,
      "byteOffset": 268640,
      "name": "floatBufferViews"
    },
    {
      "buffer": 0,
      "byteLength": 396,
      "byteOffset": 268960,
      "name": "floatBufferViews"
    },
    {
      "buffer": 0,
      "byteLength": 1140,
      "byteOffset": 269356,
      "byteStride": 12,
      "name": "floatBufferViews"
    },
    {
      "buffer": 0,
      "byteLength": 64,
      "byteOffset": 270496,
      "byteStride": 16,
      "name": "floatBufferViews"
    }
  ],
  "buffers": [
    {
      "byteLength": 270560,
      "uri": "scene.bin"
    }
  ],
  "images": [
    {
      "uri": "textures/material_baseColor.png"
    },
    {
      "uri": "textures/material_metallicRoughness.png"
    },
    {
      "uri": "textures/material_normal.png"
    },
    {
      "uri": "textures/WLAN_TPLink_PCIE_baseColor.png"
    }
  ],
  "materials": [
    {
      "doubleSided": true,
      "name": "material",
      "normalTexture": {
        "index": 2
      },
      "pbrMetallicRoughness": {
        "baseColorTexture": {
          "index": 0
        },
        "metallicRoughnessTexture": {
          "index": 1
        }
      }
    },
    {
      "doubleSided": true,
      "name": "WLAN_TPLink_PCIE",
      "pbrMetallicRoughness": {
        "baseColorTexture": {
          "index": 3
        },
        "roughnessFactor": 0.0
      }
    }
  ],
  "meshes": [
    {
      "name": "SSD_Case_1_0",
      "primitives": [
        {
          "attributes": {
            "NORMAL": 1,
            "POSITION": 0,
            "TANGENT": 2,
            "TEXCOORD_0": 3
          },
          "indices": 4,
          "material": 0,
          "mode": 4
        }
      ]
    },
    {
      "name": "SSD_Board_0",
      "primitives": [
        {
          "attributes": {
            "NORMAL": 6,
            "POSITION": 5,
            "TANGENT": 7,
            "TEXCOORD_0": 8
          },
          "indices": 9,
          "material": 0,
          "mode": 4
        }
      ]
    },
    {
      "name": "SSD_Screws_0",
      "primitives": [
        {
          "attributes": {
            "NORMAL": 11,
            "POSITION": 10,
            "TEXCOORD_0": 12
          },
          "indices": 13,
          "material": 1,
          "mode": 4
        }
      ]
    },
    {
      "name": "SSD_Case_2_0",
      "primitives": [
        {
          "attributes": {
            "NORMAL": 15,
            "POSITION": 14,
            "TANGENT": 16,
            "TEXCOORD_0": 17
          },
          "indices": 18,
          "material": 0,
          "mode": 4
        }
      ]
    }
  ],
  "nodes": [
    {
      "children": [
        1
      ],
      "matrix": [
        1.0,
        0.0,
        0.0,
        0.0,
        0.0,
        2.220446049250313e-16,
        -1.0,
        0.0,
        0.0,
        1.0,
        2.220446049250313e-16,
        0.0,
        0.0,
        0.0,
        0.0,
        1.0
      ],
      "name": "Sketchfab_model"
    },
    {
      "children": [
        2
      ],
      "name": "Root"
    },
    {
      "children": [
        3
      ],
      "name": "SSD"
    },
    {
      "children": [
        4,
        7,
        10,
        13
      ],
      "name": "SSD_rootJoint"
    },
    {
      "children": [
        5
      ],
      "name": "Bone_SSD",
      "rotation": [
        0.7071068286895752,
        0.0,
        0.0,
        0.7071068286895752
      ],
      "scale": [
        1.0,
        1.0,
        1.0
      ],
      "translation": [
        0.0,
        0.0,
        0.0
      ]
    },
    {
      "children": [
        6
      ],
      "matrix": [
        1.0,
        0.0,
        0.0,
        0.0,
        0.0,
        0.0,
        -1.0,
        0.0,
        0.0,
        1.0,
        0.0,
        0.0,
        0.0,
        0.0,
        0.0,
        1.0
      ],
      "name": "SSD_Case_1"
    },
    {
      "mesh": 0,
      "name": "SSD_Case_1_0"
    },
    {
      "children": [
        8
      ],
      "name": "Bone.001_SSD",
      "rotation": [
        0.7071068286895752,
        0.0,
        0.0,
        0.7071068286895752
      ],
      "scale": [
        1.0,
        1.0,
        1.0
      ],
      "translation": [
        1.0,
        0.0,
        0.0
      ]
    },
    {
      "children": [
        9
      ],
      "matrix": [
        1.0,
        0.0,
        0.0,
        0.0,
        0.0,
        0.0,
        -1.0,
        0.0,
        0.0,
        1.0,
        0.0,
        0.0,
        -1.0,
        0.0,
        0.0,
        1.0
      ],
      "name": "SSD_Board"
    },
    {
      "mesh": 1,
      "name": "SSD_Board_0"
    },
    {
      "children": [
        11
      ],
      "name": "Bone.002_SSD",
      "rotation": [
        0.7071068286895752,
        0.0,
        0.0,
        0.7071068286895752
      ],
      "scale": [
        1.0,
        1.0,
        1.0
      ],
      "translation": [
        2.0,
        0.0,
        0.0
      ]
    },
    {
      "children": [
        12
      ],
      "matrix": [
        1.0,
        0.0,
        0.0,
        0.0,
        0.0,
        0.0,
        -1.0,
        0.0,
        0.0,
        1.0,
        0.0,
        0.0,
        -2.0,
        0.0,
        0.0,
        1.0
      ],
      "name": "SSD_Screws"
    },
    {
      "mesh": 2,
      "name": "SSD_Screws_0"
    },
    {
      "children": [
        14
      ],
      "name": "Bone.003_SSD",
      "rotation": [
        0.7071068286895752,
        0.0,
        0.0,
        0.7071068286895752
      ],
      "scale": [
        1.0,
        1.0,
        1.0
      ],
      "translation": [
        3.0,
        0.0,
        0.0
      ]
    },
    {
      "children": [
        15
      ],
      "matrix": [
        1.0,
        0.0,
        0.0,
        0.0,
        0.0,
        0.0,
        -1.0,
        0.0,
        0.0,
        1.0,
        0.0,
        0.0,
        -3.0,
        0.0,
        0.0,
        1.0
      ],
      "name": "SSD_Case_2"
    },
    {
      "mesh": 3,
      "name": "SSD_Case_2_0"
    }
  ],
  "samplers": [
    {
      "magFilter": 9729,
      "minFilter": 9987,
      "wrapS": 10497,
      "wrapT": 10497
    }
  ],
  "scene": 0,
  "scenes": [
    {
      "name": "Sketchfab_Scene",
      "nodes": [
        0
      ]
    }
  ],
  "skins": [
    {
      "inverseBindMatrices": 19,
      "joints": [
        3,
        4,
        7,
        10,
        13
      ],
      "skeleton": 3
    }
  ],
  "textures": [
    {
      "sampler": 0,
      "source": 0
    },
    {
      "sampler": 0,
      "source": 1
    },
    {
      "sampler": 0,
      "source": 2
    },
    {
      "sampler": 0,
      "source": 3
    }
  ]
}
