{
  "accessors": [
    {
      "bufferView": 2,
      "componentType": 5126,
      "count": 2444,
      "max": [
        4.770701885223389,
        2.9295029640197754,
        0.7811099886894226
      ],
      "min": [
        -4.798973083496094,
        0.30759599804878235,
        0.5498579740524292
      ],
      "type": "VEC3"
    },
    {
      "bufferView": 2,
      "byteOffset": 29328,
      "componentType": 5126,
      "count": 2444,
      "max": [
        1.0,
        1.0,
        1.0
      ],
      "min": [
        -1.0,
        -1.0,
        -1.0
      ],
      "type": "VEC3"
    },
    {
      "bufferView": 1,
      "componentType": 5126,
      "count": 2444,
      "max": [
        0.8563209772109985,
        0.9350659847259521
      ],
      "min": [
        0.11167799681425095,
        0.11370699852705002
      ],
      "type": "VEC2"
    },
    {
      "bufferView": 0,
      "componentType": 5125,
      "count": 5202,
      "type": "SCALAR"
    },
    {
      "bufferView": 2,
      "byteOffset": 58656,
      "componentType": 5126,
      "count": 9693,
      "max": [
        4.36759614944458,
        2.8326311111450195,
        0.7394109964370728
      ],
      "min": [
        -4.748178958892822,
        0.37443500757217407,
        0.5422639846801758
      ],
      "type": "VEC3"
    },
    {
      "bufferView": 2,
      "byteOffset": 174972,
      "componentType": 5126,
      "count": 9693,
      "max": [
        1.0,
        1.0,
        1.0
      ],
      "min": [
        -1.0,
        -1.0,
        -1.0
      ],
      "type": "VEC3"
    },
    {
      "bufferView": 1,
      "byteOffset": 19552,
      "componentType": 5126,
      "count": 9693,
      "max": [
        0.9350659847259521,
        0.9438139796257019
      ],
      "min": [
        0.0,
        0.0
      ],
      "type": "VEC2"
    },
    {
      "bufferView": 0,
      "byteOffset": 20808,
      "componentType": 5125,
      "count": 15123,
      "type": "SCALAR"
    },
    {
      "bufferView": 2,
      "byteOffset": 291288,
      "componentType": 5126,
      "count": 2166,
      "max": [
        3.2186899185180664,
        2.8326311111450195,
        0.6907430291175842
      ],
      "min": [
        -2.8159608840942383,
        1.4393550157546997,
        0.6016970276832581
      ],
      "type": "VEC3"
    },
    {
      "bufferView": 2,
      "byteOffset": 317280,
      "componentType": 5126,
      "count": 2166,
      "max": [
        1.0,
        1.0,
        1.0
      ],
      "min": [
        -1.0,
        -1.0,
        -1.0
      ],
      "type": "VEC3"
    },
    {
      "bufferView": 1,
      "byteOffset": 97096,
      "componentType": 5126,
      "count": 2166,
      "max": [
        0.8110430240631104,
        0.9350659847259521
      ],
      "min": [
        0.37007099390029907,
        0.37203899025917053
      ],
      "type": "VEC2"
    },
    {
      "bufferView": 0,
      "byteOffset": 81300,
      "componentType": 5125,
      "count": 3261,
      "type": "SCALAR"
    }
  ],
  "asset": {
    "extras": {
      "author": "Хлюпич (https://sketchfab.com/foxplay382)",
      "license": "CC-BY-4.0 (http://creativecommons.org/licenses/by/4.0/)",
      "source": "https://sketchfab.com/3d-models/ssd-noname-m2-256gb-ac3e66d1e3bf46dc8684a3e4abae584b",
      "title": "SSD NoName m.2 256gb"
    },
    "generator": "Sketchfab-12.66.0",
    "version": "2.0"
  },
  "bufferViews": [
    {
      "buffer": 0,
      "byteLength": 94344,
      "name": "floatBufferViews",
      "target": 34963
    },
    {
      "buffer": 0,
      "byteLength": 114424,
      "byteOffset": 94344,
      "byteStride": 8,
      "name": "floatBufferViews",
      "target": 34962
    },
    {
      "buffer": 0,
      "byteLength": 343272,
      "byteOffset": 208768,
      "byteStride": 12,
      "name": "floatBufferViews",
      "target": 34962
    }
  ],
  "buffers": [
    {
      "byteLength": 552040,
      "uri": "scene.bin"
    }
  ],
  "images": [
    {
      "uri": "textures/None_ne.png.074_baseColor.png"
    }
  ],
  "materials": [
    {
      "doubleSided": true,
      "name": "None_ne.png.074",
      "pbrMetallicRoughness": {
        "baseColorTexture": {
          "index": 0
        },
        "metallicFactor": 0.0,
        "roughnessFactor": 0.6
      }
    }
  ],
  "meshes": [
    {
      "name": "Object_0",
      "primitives": [
        {
          "attributes": {
            "NORMAL": 1,
            "POSITION": 0,
            "TEXCOORD_0": 2
          },
          "indices": 3,
          "material": 0,
          "mode": 4
        }
      ]
    },
    {
      "name": "Object_1",
      "primitives": [
        {
          "attributes": {
            "NORMAL": 5,
            "POSITION": 4,
            "TEXCOORD_0": 6
          },
          "indices": 7,
          "material": 0,
          "mode": 4
        }
      ]
    },
    {
      "name": "Object_2",
      "primitives": [
        {
          "attributes": {
            "NORMAL": 9,
            "POSITION": 8,
            "TEXCOORD_0": 10
          },
          "indices": 11,
          "material": 0,
          "mode": 4
        }
      ]
    }
  ],
  "nodes": [
    {
      "children": [
        1
      ],
      "matrix": [
        1.0,
        0.0,
        0.0,
        0.0,
        0.0,
        2.220446049250313e-16,
        -1.0,
        0.0,
        0.0,
        1.0,
        2.220446049250313e-16,
        0.0,
        0.0,
        0.0,
        0.0,
        1.0
      ],
      "name": "Sketchfab_model"
    },
    {
      "children": [
        2,
        3,
        4
      ],
      "name": "9b0347bd55e344579ae16fd740eb1153.obj.cleaner.materialmerger.gles"
    },
    {
      "mesh": 0,
      "name": "Object_2"
    },
    {
      "mesh": 1,
      "name": "Object_3"
    },
    {
      "mesh": 2,
      "name": "Object_4"
    }
  ],
  "samplers": [
    {
      "magFilter": 9729,
      "minFilter": 9987,
      "wrapS": 10497,
      "wrapT": 10497
    }
  ],
  "scene": 0,
  "scenes": [
    {
      "name": "Sketchfab_Scene",
      "nodes": [
        0
      ]
    }
  ],
  "textures": [
    {
      "sampler": 0,
      "source": 0
    }
  ]
}
