{
  "accessors": [
    {
      "bufferView": 2,
      "componentType": 5126,
      "count": 65532,
      "max": [
        0.2703799903392792,
        3.1382510662078857,
        2.1289288997650146
      ],
      "min": [
        0.1756729930639267,
        -0.9993730187416077,
        0.1564210057258606
      ],
      "type": "VEC3"
    },
    {
      "bufferView": 2,
      "byteOffset": 786384,
      "componentType": 5126,
      "count": 65532,
      "max": [
        0.9999687671661377,
        0.9997425675392151,
        0.9999620914459229
      ],
      "min": [
        -0.9984433054924011,
        -0.999932050704956,
        -0.999531090259552
      ],
      "type": "VEC3"
    },
    {
      "bufferView": 1,
      "componentType": 5126,
      "count": 65532,
      "max": [
        1.0,
        1.0
      ],
      "min": [
        0.0,
        -0.7461339831352234
      ],
      "type": "VEC2"
    },
    {
      "bufferView": 0,
      "componentType": 5125,
      "count": 320871,
      "type": "SCALAR"
    },
    {
      "bufferView": 2,
      "byteOffset": 1572768,
      "componentType": 5126,
      "count": 10028,
      "max": [
        0.2703799903392792,
        2.449920892715454,
        0.9968289732933044
      ],
      "min": [
        0.1756729930639267,
        1.2398359775543213,
        0.1564600020647049
      ],
      "type": "VEC3"
    },
    {
      "bufferView": 2,
      "byteOffset": 1693104,
      "componentType": 5126,
      "count": 10028,
      "max": [
        0.9999687671661377,
        0.9997425675392151,
        0.9999281167984009
      ],
      "min": [
        -0.9984433054924011,
        -0.997470498085022,
        -0.9948985576629639
      ],
      "type": "VEC3"
    },
    {
      "bufferView": 1,
      "byteOffset": 524256,
      "componentType": 5126,
      "count": 10028,
      "max": [
        1.0,
        1.0
      ],
      "min": [
        0.0,
        -0.7461339831352234
      ],
      "type": "VEC2"
    },
    {
      "bufferView": 0,
      "byteOffset": 1283484,
      "componentType": 5125,
      "count": 48729,
      "type": "SCALAR"
    },
    {
      "bufferView": 2,
      "byteOffset": 1813440,
      "componentType": 5126,
      "count": 11794,
      "max": [
        -0.1810230016708374,
        2.9583261013031006,
        2.180567979812622
      ],
      "min": [
        -0.39744800329208374,
        -1.1282459497451782,
        0.2552909851074219
      ],
      "type": "VEC3"
    },
    {
      "bufferView": 2,
      "byteOffset": 1954968,
      "componentType": 5126,
      "count": 11794,
      "max": [
        1.0,
        1.0,
        1.0
      ],
      "min": [
        -1.0,
        -1.0,
        -1.0
      ],
      "type": "VEC3"
    },
    {
      "bufferView": 1,
      "byteOffset": 604480,
      "componentType": 5126,
      "count": 11794,
      "max": [
        1.1564780473709106,
        1.4202799797058105
      ],
      "min": [
        -0.5466520190238953,
        -0.4402199983596802
      ],
      "type": "VEC2"
    },
    {
      "bufferView": 0,
      "byteOffset": 1478400,
      "componentType": 5125,
      "count": 56448,
      "type": "SCALAR"
    },
    {
      "bufferView": 2,
      "byteOffset": 2096496,
      "componentType": 5126,
      "count": 1344,
      "max": [
        0.12201599776744843,
        3.171320915222168,
        2.026890993118286
      ],
      "min": [
        -0.21766899526119232,
        -1.0902669429779053,
        0.21099600195884705
      ],
      "type": "VEC3"
    },
    {
      "bufferView": 2,
      "byteOffset": 2112624,
      "componentType": 5126,
      "count": 1344,
      "max": [
        1.0,
        1.0,
        1.0
      ],
      "min": [
        -1.0,
        -1.0,
        -1.0
      ],
      "type": "VEC3"
    },
    {
      "bufferView": 1,
      "byteOffset": 698832,
      "componentType": 5126,
      "count": 1344,
      "max": [
        0.9996839761734009,
        1.0
      ],
      "min": [
        0.0,
        0.0
      ],
      "type": "VEC2"
    },
    {
      "bufferView": 0,
      "byteOffset": 1704192,
      "componentType": 5125,
      "count": 2016,
      "type": "SCALAR"
    },
    {
      "bufferView": 2,
      "byteOffset": 2128752,
      "componentType": 5126,
      "count": 180,
      "max": [
        -0.3590500056743622,
        2.4129490852355957,
        1.8935840129852295
      ],
      "min": [
        -0.3697130084037781,
        -1.0984419584274292,
        -0.08105699717998505
      ],
      "type": "VEC3"
    },
    {
      "bufferView": 2,
      "byteOffset": 2130912,
      "componentType": 5126,
      "count": 180,
      "max": [
        -0.6947752833366394,
        0.7192015647888184,
        0.7071068286895752
      ],
      "min": [
        -1.0,
        -0.7192015647888184,
        -0.7071068286895752
      ],
      "type": "VEC3"
    },
    {
      "bufferView": 1,
      "byteOffset": 709584,
      "componentType": 5126,
      "count": 180,
      "max": [
        0.9837679862976074,
        0.978488028049469
      ],
      "min": [
        0.05329500138759613,
        0.03504600003361702
      ],
      "type": "VEC2"
    },
    {
      "bufferView": 0,
      "byteOffset": 1712256,
      "componentType": 5125,
      "count": 318,
      "type": "SCALAR"
    },
    {
      "bufferView": 2,
      "byteOffset": 2133072,
      "componentType": 5126,
      "count": 4,
      "max": [
        -0.21515600383281708,
        -1.2723640203475952,
        1.7397470474243164
      ],
      "min": [
        -0.3953860104084015,
        -1.272392988204956,
        0.1074490025639534
      ],
      "type": "VEC3"
    },
    {
      "bufferView": 2,
      "byteOffset": 2133120,
      "componentType": 5126,
      "count": 4,
      "max": [
        -0.0,
        -1.0,
        -0.0
      ],
      "min": [
        -0.0,
        -1.0,
        -0.0
      ],
      "type": "VEC3"
    },
    {
      "bufferView": 1,
      "byteOffset": 711024,
      "componentType": 5126,
      "count": 4,
      "max": [
        0.4669800102710724,
        0.6899160146713257
      ],
      "min": [
        0.43065598607063293,
        0.29335400462150574
      ],
      "type": "VEC2"
    },
    {
      "bufferView": 0,
      "byteOffset": 1713528,
      "componentType": 5125,
      "count": 6,
      "type": "SCALAR"
    },
    {
      "bufferView": 2,
      "byteOffset": 2133168,
      "componentType": 5126,
      "count": 22,
      "max": [
        0.3330189883708954,
        3.398284912109375,
        2.1988439559936523
      ],
      "min": [
        -0.43222400546073914,
        -1.271859049797058,
        2.198530912399292
      ],
      "type": "VEC3"
    },
    {
      "bufferView": 2,
      "byteOffset": 2133432,
      "componentType": 5126,
      "count": 22,
      "max": [
        0.029598871245980263,
        9.999618487199768e-05,
        1.0
      ],
      "min": [
        -0.0,
        0.0,
        0.9995618462562561
      ],
      "type": "VEC3"
    },
    {
      "bufferView": 1,
      "byteOffset": 711056,
      "componentType": 5126,
      "count": 22,
      "max": [
        0.9265390038490295,
        0.5672280192375183
      ],
      "min": [
        0.10534100234508514,
        0.4366140067577362
      ],
      "type": "VEC2"
    },
    {
      "bufferView": 0,
      "byteOffset": 1713552,
      "componentType": 5125,
      "count": 51,
      "type": "SCALAR"
    },
    {
      "bufferView": 2,
      "byteOffset": 2133696,
      "componentType": 5126,
      "count": 36,
      "max": [
        -0.4139159917831421,
        3.398284912109375,
        2.1988439559936523
      ],
      "min": [
        -0.43222400546073914,
        -1.271859049797058,
        0.07740099728107452
      ],
      "type": "VEC3"
    },
    {
      "bufferView": 2,
      "byteOffset": 2134128,
      "componentType": 5126,
      "count": 36,
      "max": [
        -0.5956015586853027,
        0.1948005110025406,
        0.0014000007649883628
      ],
      "min": [
        -1.0,
        -0.5909214019775391,
        -0.7793020009994507
      ],
      "type": "VEC3"
    },
    {
      "bufferView": 1,
      "byteOffset": 711232,
      "componentType": 5126,
      "count": 36,
      "max": [
        0.8715890049934387,
        0.6348099708557129
      ],
      "min": [
        0.07471299916505814,
        0.2752090096473694
      ],
      "type": "VEC2"
    },
    {
      "bufferView": 0,
      "byteOffset": 1713756,
      "componentType": 5125,
      "count": 96,
      "type": "SCALAR"
    },
    {
      "bufferView": 2,
      "byteOffset": 2134560,
      "componentType": 5126,
      "count": 324,
      "max": [
        -0.3697130084037781,
        2.4129490852355957,
        1.8935840129852295
      ],
      "min": [
        -0.3981119990348816,
        -1.0984419584274292,
        -0.08105699717998505
      ],
      "type": "VEC3"
    },
    {
      "bufferView": 2,
      "byteOffset": 2138448,
      "componentType": 5126,
      "count": 324,
      "max": [
        1.0,
        1.0,
        1.0
      ],
      "min": [
        -0.0,
        -1.0,
        -1.0
      ],
      "type": "VEC3"
    },
    {
      "bufferView": 1,
      "byteOffset": 711520,
      "componentType": 5126,
      "count": 324,
      "max": [
        0.9749460220336914,
        0.965142011642456
      ],
      "min": [
        0.018353000283241272,
        0.022367000579833984
      ],
      "type": "VEC2"
    },
    {
      "bufferView": 0,
      "byteOffset": 1714140,
      "componentType": 5125,
      "count": 534,
      "type": "SCALAR"
    },
    {
      "bufferView": 2,
      "byteOffset": 2142336,
      "componentType": 5126,
      "count": 611,
      "max": [
        0.350600004196167,
        3.398284912109375,
        2.1988439559936523
      ],
      "min": [
        -0.43222400546073914,
        -1.271859049797058,
        0.07740099728107452
      ],
      "type": "VEC3"
    },
    {
      "bufferView": 2,
      "byteOffset": 2149668,
      "componentType": 5126,
      "count": 611,
      "max": [
        1.0,
        1.0,
        1.0
      ],
      "min": [
        -1.0,
        -1.0,
        -1.0
      ],
      "type": "VEC3"
    },
    {
      "bufferView": 1,
      "byteOffset": 714112,
      "componentType": 5126,
      "count": 611,
      "max": [
        0.9958789944648743,
        0.7995910048484802
      ],
      "min": [
        0.06258700042963028,
        0.3289470076560974
      ],
      "type": "VEC2"
    },
    {
      "bufferView": 0,
      "byteOffset": 1716276,
      "componentType": 5125,
      "count": 1767,
      "type": "SCALAR"
    },
    {
      "bufferView": 2,
      "byteOffset": 2157000,
      "componentType": 5126,
      "count": 1762,
      "max": [
        0.350600004196167,
        3.398284912109375,
        2.1988439559936523
      ],
      "min": [
        -0.433025985956192,
        -1.453421950340271,
        -0.3392620086669922
      ],
      "type": "VEC3"
    },
    {
      "bufferView": 2,
      "byteOffset": 2178144,
      "componentType": 5126,
      "count": 1762,
      "max": [
        1.0,
        1.0,
        1.0
      ],
      "min": [
        -1.0,
        -1.0,
        -1.0
      ],
      "type": "VEC3"
    },
    {
      "bufferView": 1,
      "byteOffset": 719000,
      "componentType": 5126,
      "count": 1762,
      "max": [
        0.5924050211906433,
        0.8101930022239685
      ],
      "min": [
        0.42425400018692017,
        0.1869010031223297
      ],
      "type": "VEC2"
    },
    {
      "bufferView": 0,
      "byteOffset": 1723344,
      "componentType": 5125,
      "count": 4275,
      "type": "SCALAR"
    }
  ],
  "asset": {
    "extras": {
      "author": "wanderer (https://sketchfab.com/wanderer2)",
      "license": "CC-BY-4.0 (http://creativecommons.org/licenses/by/4.0/)",
      "source": "https://sketchfab.com/3d-models/rtx-3060-ti-eagle-1586908000f24cf1b65454f8d3999504",
      "title": "RTX 3060 TI EAGLE"
    },
    "generator": "Sketchfab-15.80.0",
    "version": "2.0"
  },
  "bufferViews": [
    {
      "buffer": 0,
      "byteLength": 1740444,
      "name": "floatBufferViews",
      "target": 34963
    },
    {
      "buffer": 0,
      "byteLength": 733096,
      "byteOffset": 1740444,
      "byteStride": 8,
      "name": "floatBufferViews",
      "target": 34962
    },
    {
      "buffer": 0,
      "byteLength": 2199288,
      "byteOffset": 2473540,
      "byteStride": 12,
      "name": "floatBufferViews",
      "target": 34962
    }
  ],
  "buffers": [
    {
      "byteLength": 4672828,
      "uri": "scene.bin"
    }
  ],
  "extensionsUsed": [
    "KHR_materials_clearcoat",
    "KHR_materials_specular"
  ],
  "images": [
    {
      "uri": "textures/backplate_1_baseColor.jpeg"
    },
    {
      "uri": "textures/front_baseColor.jpeg"
    },
    {
      "uri": "textures/material_baseColor.jpeg"
    },
    {
      "uri": "textures/material_7_baseColor.jpeg"
    },
    {
      "uri": "textures/material_8_baseColor.jpeg"
    },
    {
      "uri": "textures/material_9_baseColor.jpeg"
    }
  ],
  "materials": [
    {
      "doubleSided": true,
      "extensions": {
        "KHR_materials_clearcoat": {
          "clearcoatFactor": 1.0,
          "clearcoatRoughnessFactor": 0.4190488961490168
        }
      },
      "name": "Material",
      "pbrMetallicRoughness": {
        "baseColorFactor": [
          0.04167169351225247,
          0.04167169351225247,
          0.04167169351225247,
          1.0
        ],
        "metallicFactor": 0.0,
        "roughnessFactor": 0.40418866038448886
      }
    },
    {
      "doubleSided": true,
      "extensions": {
        "KHR_materials_specular": {
          "specularColorFactor": [
            1.0,
            1.0,
            1.0
          ],
          "specularFactor": 0.0
        }
      },
      "name": "Material.001",
      "pbrMetallicRoughness": {
        "baseColorFactor": [
          0.44672920812723993,
          0.05720637245835654,
          0.003360527747759162,
          1.0
        ],
        "roughnessFactor": 0.36152186368567985
      }
    },
    {
      "doubleSided": true,
      "extensions": {
        "KHR_materials_specular": {
          "specularColorFactor": [
            1.0,
            1.0,
            1.0
          ],
          "specularFactor": 0.0
        }
      },
      "name": "Material.002",
      "pbrMetallicRoughness": {
        "baseColorFactor": [
          0.3254867062452,
          0.3254867062452,
          0.3254867062452,
          1.0
        ],
        "roughnessFactor": 0.30056929697309553
      }
    },
    {
      "doubleSided": true,
      "name": "backplate_1",
      "pbrMetallicRoughness": {
        "baseColorTexture": {
          "index": 0
        },
        "metallicFactor": 0.0,
        "roughnessFactor": 0.8011823178082373
      }
    },
    {
      "doubleSided": true,
      "name": "front",
      "pbrMetallicRoughness": {
        "baseColorTexture": {
          "index": 1
        },
        "metallicFactor": 0.0,
        "roughnessFactor": 0.8011823178082373
      }
    },
    {
      "doubleSided": true,
      "extensions": {
        "KHR_materials_specular": {
          "specularColorFactor": [
            1.0,
            1.0,
            1.0
          ],
          "specularFactor": 0.0
        }
      },
      "name": "material",
      "pbrMetallicRoughness": {
        "baseColorTexture": {
          "index": 2
        },
        "metallicFactor": 0.6323828796430617,
        "roughnessFactor": 0.14818788019163498
      }
    },
    {
      "doubleSided": true,
      "name": ".001",
      "pbrMetallicRoughness": {
        "baseColorTexture": {
          "index": 2
        },
        "metallicFactor": 0.0,
        "roughnessFactor": 0.8011823178082373
      }
    },
    {
      "doubleSided": true,
      "name": "material_7",
      "pbrMetallicRoughness": {
        "baseColorTexture": {
          "index": 3
        },
        "metallicFactor": 0.0,
        "roughnessFactor": 0.8011823178082373
      }
    },
    {
      "doubleSided": true,
      "name": "material_8",
      "pbrMetallicRoughness": {
        "baseColorTexture": {
          "index": 4
        },
        "metallicFactor": 0.3337153027513988,
        "roughnessFactor": 0.8011823178082373
      }
    },
    {
      "doubleSided": true,
      "name": "material_9",
      "pbrMetallicRoughness": {
        "baseColorTexture": {
          "index": 5
        },
        "metallicFactor": 0.0,
        "roughnessFactor": 0.8011823178082373
      }
    }
  ],
  "meshes": [
    {
      "name": "Object_0",
      "primitives": [
        {
          "attributes": {
            "NORMAL": 1,
            "POSITION": 0,
            "TEXCOORD_0": 2
          },
          "indices": 3,
          "material": 0,
          "mode": 4
        }
      ]
    },
    {
      "name": "Object_1",
      "primitives": [
        {
          "attributes": {
            "NORMAL": 5,
            "POSITION": 4,
            "TEXCOORD_0": 6
          },
          "indices": 7,
          "material": 0,
          "mode": 4
        }
      ]
    },
    {
      "name": "Object_2",
      "primitives": [
        {
          "attributes": {
            "NORMAL": 9,
            "POSITION": 8,
            "TEXCOORD_0": 10
          },
          "indices": 11,
          "material": 1,
          "mode": 4
        }
      ]
    },
    {
      "name": "Object_3",
      "primitives": [
        {
          "attributes": {
            "NORMAL": 13,
            "POSITION": 12,
            "TEXCOORD_0": 14
          },
          "indices": 15,
          "material": 2,
          "mode": 4
        }
      ]
    },
    {
      "name": "Object_4",
      "primitives": [
        {
          "attributes": {
            "NORMAL": 17,
            "POSITION": 16,
            "TEXCOORD_0": 18
          },
          "indices": 19,
          "material": 3,
          "mode": 4
        }
      ]
    },
    {
      "name": "Object_5",
      "primitives": [
        {
          "attributes": {
            "NORMAL": 21,
            "POSITION": 20,
            "TEXCOORD_0": 22
          },
          "indices": 23,
          "material": 6,
          "mode": 4
        }
      ]
    },
    {
      "name": "Object_6",
      "primitives": [
        {
          "attributes": {
            "NORMAL": 25,
            "POSITION": 24,
            "TEXCOORD_0": 26
          },
          "indices": 27,
          "material": 7,
          "mode": 4
        }
      ]
    },
    {
      "name": "Object_7",
      "primitives": [
        {
          "attributes": {
            "NORMAL": 29,
            "POSITION": 28,
            "TEXCOORD_0": 30
          },
          "indices": 31,
          "material": 8,
          "mode": 4
        }
      ]
    },
    {
      "name": "Object_8",
      "primitives": [
        {
          "attributes": {
            "NORMAL": 33,
            "POSITION": 32,
            "TEXCOORD_0": 34
          },
          "indices": 35,
          "material": 9,
          "mode": 4
        }
      ]
    },
    {
      "name": "Object_9",
      "primitives": [
        {
          "attributes": {
            "NORMAL": 37,
            "POSITION": 36,
            "TEXCOORD_0": 38
          },
          "indices": 39,
          "material": 4,
          "mode": 4
        }
      ]
    },
    {
      "name": "Object_10",
      "primitives": [
        {
          "attributes": {
            "NORMAL": 41,
            "POSITION": 40,
            "TEXCOORD_0": 42
          },
          "indices": 43,
          "material": 5,
          "mode": 4
        }
      ]
    }
  ],
  "nodes": [
    {
      "children": [
        1
      ],
      "matrix": [
        1.0,
        0.0,
        0.0,
        0.0,
        0.0,
        2.220446049250313e-16,
        -1.0,
        0.0,
        0.0,
        1.0,
        2.220446049250313e-16,
        0.0,
        0.0,
        0.0,
        0.0,
        1.0
      ],
      "name": "Sketchfab_model"
    },
    {
      "children": [
        2,
        3,
        4,
        5,
        6,
        7,
        8,
        9,
        10,
        11,
        12
      ],
      "name": "3060 rtx.obj.cleaner.materialmerger.gles"
    },
    {
      "mesh": 0,
      "name": "Object_2"
    },
    {
      "mesh": 1,
      "name": "Object_3"
    },
    {
      "mesh": 2,
      "name": "Object_4"
    },
    {
      "mesh": 3,
      "name": "Object_5"
    },
    {
      "mesh": 4,
      "name": "Object_6"
    },
    {
      "mesh": 5,
      "name": "Object_7"
    },
    {
      "mesh": 6,
      "name": "Object_8"
    },
    {
      "mesh": 7,
      "name": "Object_9"
    },
    {
      "mesh": 8,
      "name": "Object_10"
    },
    {
      "mesh": 9,
      "name": "Object_11"
    },
    {
      "mesh": 10,
      "name": "Object_12"
    }
  ],
  "samplers": [
    {
      "magFilter": 9729,
      "minFilter": 9987,
      "wrapS": 10497,
      "wrapT": 10497
    }
  ],
  "scene": 0,
  "scenes": [
    {
      "name": "Sketchfab_Scene",
      "nodes": [
        0
      ]
    }
  ],
  "textures": [
    {
      "sampler": 0,
      "source": 0
    },
    {
      "sampler": 0,
      "source": 1
    },
    {
      "sampler": 0,
      "source": 2
    },
    {
      "sampler": 0,
      "source": 3
    },
    {
      "sampler": 0,
      "source": 4
    },
    {
      "sampler": 0,
      "source": 5
    }
  ]
}
