{
  "accessors": [
    {
      "bufferView": 2,
      "componentType": 5126,
      "count": 65534,
      "max": [
        3.511474609375,
        7.848835468292236,
        4.151457786560059
      ],
      "min": [
        -1.0,
        -1.0,
        -4.5857133865356445
      ],
      "type": "VEC3"
    },
    {
      "bufferView": 2,
      "byteOffset": 786408,
      "componentType": 5126,
      "count": 65534,
      "max": [
        0.9951872229576111,
        0.995195746421814,
        0.9951897263526917
      ],
      "min": [
        -1.0,
        -0.995195746421814,
        -1.0
      ],
      "type": "VEC3"
    },
    {
      "bufferView": 1,
      "componentType": 5126,
      "count": 65534,
      "max": [
        1.0,
        0.8855957984924316
      ],
      "min": [
        0.0,
        0.0
      ],
      "type": "VEC2"
    },
    {
      "bufferView": 0,
      "componentType": 5125,
      "count": 104928,
      "type": "SCALAR"
    },
    {
      "bufferView": 2,
      "byteOffset": 1572816,
      "componentType": 5126,
      "count": 65532,
      "max": [
        3.511474609375,
        7.848835468292236,
        4.151457786560059
      ],
      "min": [
        -1.0,
        -1.0,
        -4.5857133865356445
      ],
      "type": "VEC3"
    },
    {
      "bufferView": 2,
      "byteOffset": 2359200,
      "componentType": 5126,
      "count": 65532,
      "max": [
        1.0,
        0.9951914548873901,
        0.9951885342597961
      ],
      "min": [
        -0.9951872229576111,
        -1.0,
        -0.9951872229576111
      ],
      "type": "VEC3"
    },
    {
      "bufferView": 1,
      "byteOffset": 524272,
      "componentType": 5126,
      "count": 65532,
      "max": [
        1.0,
        0.8855957984924316
      ],
      "min": [
        0.0,
        0.5
      ],
      "type": "VEC2"
    },
    {
      "bufferView": 0,
      "byteOffset": 419712,
      "componentType": 5125,
      "count": 98298,
      "type": "SCALAR"
    },
    {
      "bufferView": 2,
      "byteOffset": 3145584,
      "componentType": 5126,
      "count": 65532,
      "max": [
        3.511474609375,
        7.848835468292236,
        4.151457786560059
      ],
      "min": [
        -1.0,
        -1.0,
        -4.5857133865356445
      ],
      "type": "VEC3"
    },
    {
      "bufferView": 2,
      "byteOffset": 3931968,
      "componentType": 5126,
      "count": 65532,
      "max": [
        0.0005293600843288004,
        1.0,
        1.0
      ],
      "min": [
        -1.0,
        -1.0,
        -0.9951834082603455
      ],
      "type": "VEC3"
    },
    {
      "bufferView": 1,
      "byteOffset": 1048528,
      "componentType": 5126,
      "count": 65532,
      "max": [
        1.0,
        1.0
      ],
      "min": [
        0.0,
        0.0
      ],
      "type": "VEC2"
    },
    {
      "bufferView": 0,
      "byteOffset": 812904,
      "componentType": 5125,
      "count": 181275,
      "type": "SCALAR"
    },
    {
      "bufferView": 2,
      "byteOffset": 4718352,
      "componentType": 5126,
      "count": 1936,
      "max": [
        -1.0,
        7.848835468292236,
        4.151457786560059
      ],
      "min": [
        -1.0,
        0.929448127746582,
        -4.5857133865356445
      ],
      "type": "VEC3"
    },
    {
      "bufferView": 2,
      "byteOffset": 4741584,
      "componentType": 5126,
      "count": 1936,
      "max": [
        -1.0,
        0.0,
        -0.0
      ],
      "min": [
        -1.0,
        0.0,
        -0.0
      ],
      "type": "VEC3"
    },
    {
      "bufferView": 1,
      "byteOffset": 1572784,
      "componentType": 5126,
      "count": 1936,
      "max": [
        0.625,
        0.25
      ],
      "min": [
        0.4295113682746887,
        0.0
      ],
      "type": "VEC2"
    },
    {
      "bufferView": 0,
      "byteOffset": 1538004,
      "componentType": 5125,
      "count": 5916,
      "type": "SCALAR"
    },
    {
      "bufferView": 2,
      "byteOffset": 4764816,
      "componentType": 5126,
      "count": 10082,
      "max": [
        3.511474609375,
        7.848835468292236,
        4.151457786560059
      ],
      "min": [
        -0.6580851078033447,
        -0.8800164461135864,
        -4.5857133865356445
      ],
      "type": "VEC3"
    },
    {
      "bufferView": 2,
      "byteOffset": 4885800,
      "componentType": 5126,
      "count": 10082,
      "max": [
        1.0,
        1.0,
        1.0
      ],
      "min": [
        -1.0,
        -1.0,
        -1.0
      ],
      "type": "VEC3"
    },
    {
      "bufferView": 1,
      "byteOffset": 1588272,
      "componentType": 5126,
      "count": 10082,
      "max": [
        1.0,
        1.0
      ],
      "min": [
        0.0,
        0.0
      ],
      "type": "VEC2"
    },
    {
      "bufferView": 0,
      "byteOffset": 1561668,
      "componentType": 5125,
      "count": 29184,
      "type": "SCALAR"
    },
    {
      "bufferView": 2,
      "byteOffset": 5006784,
      "componentType": 5126,
      "count": 65534,
      "max": [
        1.0,
        1.0,
        -2.38983416557312
      ],
      "min": [
        -1.0570340156555176,
        -3.4573965072631836,
        -2.4275319576263428
      ],
      "type": "VEC3"
    },
    {
      "bufferView": 2,
      "byteOffset": 5793192,
      "componentType": 5126,
      "count": 65534,
      "max": [
        1.0,
        1.0,
        1.0
      ],
      "min": [
        -1.0,
        -1.0,
        -1.0
      ],
      "type": "VEC3"
    },
    {
      "bufferView": 1,
      "byteOffset": 1668928,
      "componentType": 5126,
      "count": 65534,
      "max": [
        1.0,
        1.0
      ],
      "min": [
        0.0,
        0.0
      ],
      "type": "VEC2"
    },
    {
      "bufferView": 0,
      "byteOffset": 1678404,
      "componentType": 5125,
      "count": 109341,
      "type": "SCALAR"
    },
    {
      "bufferView": 2,
      "byteOffset": 6579600,
      "componentType": 5126,
      "count": 37872,
      "max": [
        1.0,
        1.0,
        -2.389834403991699
      ],
      "min": [
        -1.0570340156555176,
        -3.4573965072631836,
        -2.4275319576263428
      ],
      "type": "VEC3"
    },
    {
      "bufferView": 2,
      "byteOffset": 7034064,
      "componentType": 5126,
      "count": 37872,
      "max": [
        1.0,
        0.9951865673065186,
        1.0
      ],
      "min": [
        -1.0,
        -1.0,
        -1.0
      ],
      "type": "VEC3"
    },
    {
      "bufferView": 1,
      "byteOffset": 2193200,
      "componentType": 5126,
      "count": 37872,
      "max": [
        1.0,
        1.0
      ],
      "min": [
        0.0,
        0.23057711124420166
      ],
      "type": "VEC2"
    },
    {
      "bufferView": 0,
      "byteOffset": 2115768,
      "componentType": 5125,
      "count": 99432,
      "type": "SCALAR"
    },
    {
      "bufferView": 2,
      "byteOffset": 7488528,
      "componentType": 5126,
      "count": 282,
      "max": [
        1.8125602006912231,
        3.327462911605835,
        -5.795379638671875
      ],
      "min": [
        -0.38157540559768677,
        -0.27717259526252747,
        -6.479531288146973
      ],
      "type": "VEC3"
    },
    {
      "bufferView": 2,
      "byteOffset": 7491912,
      "componentType": 5126,
      "count": 282,
      "max": [
        1.0,
        1.0,
        1.0
      ],
      "min": [
        -1.0,
        -1.0,
        -1.0
      ],
      "type": "VEC3"
    },
    {
      "bufferView": 1,
      "byteOffset": 2496176,
      "componentType": 5126,
      "count": 282,
      "max": [
        1.0,
        1.0
      ],
      "min": [
        0.0,
        0.0
      ],
      "type": "VEC2"
    },
    {
      "bufferView": 0,
      "byteOffset": 2513496,
      "componentType": 5125,
      "count": 552,
      "type": "SCALAR"
    },
    {
      "bufferView": 2,
      "byteOffset": 7495296,
      "componentType": 5126,
      "count": 192,
      "max": [
        1.0,
        -2.638984203338623,
        1.0
      ],
      "min": [
        -1.0,
        -2.7971341609954834,
        -1.0
      ],
      "type": "VEC3"
    },
    {
      "bufferView": 2,
      "byteOffset": 7497600,
      "componentType": 5126,
      "count": 192,
      "max": [
        0.9951847791671753,
        1.0,
        0.9951848387718201
      ],
      "min": [
        -0.9951848387718201,
        -1.0,
        -0.9951848387718201
      ],
      "type": "VEC3"
    },
    {
      "bufferView": 1,
      "byteOffset": 2498432,
      "componentType": 5126,
      "count": 192,
      "max": [
        1.0,
        1.0
      ],
      "min": [
        0.0,
        0.01000000536441803
      ],
      "type": "VEC2"
    },
    {
      "bufferView": 0,
      "byteOffset": 2515704,
      "componentType": 5125,
      "count": 372,
      "type": "SCALAR"
    },
    {
      "bufferView": 2,
      "byteOffset": 7499904,
      "componentType": 5126,
      "count": 300,
      "max": [
        -0.9144630432128906,
        6.130733489990234,
        -0.06202307343482971
      ],
      "min": [
        -5.621217727661133,
        -1.9330487251281738,
        -1.0192623138427734
      ],
      "type": "VEC3"
    },
    {
      "bufferView": 2,
      "byteOffset": 7503504,
      "componentType": 5126,
      "count": 300,
      "max": [
        1.0,
        1.0,
        1.0
      ],
      "min": [
        -1.0,
        -1.0,
        -1.0
      ],
      "type": "VEC3"
    },
    {
      "bufferView": 1,
      "byteOffset": 2499968,
      "componentType": 5126,
      "count": 300,
      "max": [
        1.0,
        1.0
      ],
      "min": [
        0.0,
        0.0
      ],
      "type": "VEC2"
    },
    {
      "bufferView": 0,
      "byteOffset": 2517192,
      "componentType": 5125,
      "count": 573,
      "type": "SCALAR"
    }
  ],
  "asset": {
    "extras": {
      "author": "Up1x (https://sketchfab.com/alexlh2003)",
      "license": "CC-BY-4.0 (http://creativecommons.org/licenses/by/4.0/)",
      "source": "https://sketchfab.com/3d-models/computer-case-based-off-of-nzxt-510b-d2279335aac944da90d05b33c606e178",
      "title": "Computer Case (Based off of NZXT 510B)"
    },
    "generator": "Sketchfab-12.67.0",
    "version": "2.0"
  },
  "bufferViews": [
    {
      "buffer": 0,
      "byteLength": 2519484,
      "name": "floatBufferViews",
      "target": 34963
    },
    {
      "buffer": 0,
      "byteLength": 2502368,
      "byteOffset": 2519484,
      "byteStride": 8,
      "name": "floatBufferViews",
      "target": 34962
    },
    {
      "buffer": 0,
      "byteLength": 7507104,
      "byteOffset": 5021852,
      "byteStride": 12,
      "name": "floatBufferViews",
      "target": 34962
    }
  ],
  "buffers": [
    {
      "byteLength": 12528956,
      "uri": "scene.bin"
    }
  ],
  "materials": [
    {
      "doubleSided": true,
      "name": "material_0",
      "pbrMetallicRoughness": {
        "metallicFactor": 0.0,
        "roughnessFactor": 0.6
      }
    },
    {
      "doubleSided": true,
      "name": "Material",
      "pbrMetallicRoughness": {
        "metallicFactor": 0.0,
        "roughnessFactor": 0.4
      }
    },
    {
      "doubleSided": true,
      "name": "Material.001",
      "pbrMetallicRoughness": {
        "baseColorFactor": [
          0.0,
          0.0,
          0.0,
          1.0
        ],
        "metallicFactor": 0.0,
        "roughnessFactor": 0.5
      }
    },
    {
      "doubleSided": true,
      "name": "Material.002",
      "pbrMetallicRoughness": {
        "baseColorFactor": [
          0.0,
          0.0,
          0.0,
          1.0
        ],
        "metallicFactor": 0.0,
        "roughnessFactor": 0.5
      }
    },
    {
      "doubleSided": true,
      "name": "Material.003",
      "pbrMetallicRoughness": {
        "baseColorFactor": [
          0.0188488,
          0.0188488,
          0.0188488,
          1.0
        ],
        "metallicFactor": 0.0,
        "roughnessFactor": 0.5
      }
    }
  ],
  "meshes": [
    {
      "name": "Object_0",
      "primitives": [
        {
          "attributes": {
            "NORMAL": 1,
            "POSITION": 0,
            "TEXCOORD_0": 2
          },
          "indices": 3,
          "material": 1,
          "mode": 4
        }
      ]
    },
    {
      "name": "Object_1",
      "primitives": [
        {
          "attributes": {
            "NORMAL": 5,
            "POSITION": 4,
            "TEXCOORD_0": 6
          },
          "indices": 7,
          "material": 1,
          "mode": 4
        }
      ]
    },
    {
      "name": "Object_2",
      "primitives": [
        {
          "attributes": {
            "NORMAL": 9,
            "POSITION": 8,
            "TEXCOORD_0": 10
          },
          "indices": 11,
          "material": 1,
          "mode": 4
        }
      ]
    },
    {
      "name": "Object_3",
      "primitives": [
        {
          "attributes": {
            "NORMAL": 13,
            "POSITION": 12,
            "TEXCOORD_0": 14
          },
          "indices": 15,
          "material": 1,
          "mode": 4
        }
      ]
    },
    {
      "name": "Object_4",
      "primitives": [
        {
          "attributes": {
            "NORMAL": 17,
            "POSITION": 16,
            "TEXCOORD_0": 18
          },
          "indices": 19,
          "material": 2,
          "mode": 4
        }
      ]
    },
    {
      "name": "Object_5",
      "primitives": [
        {
          "attributes": {
            "NORMAL": 21,
            "POSITION": 20,
            "TEXCOORD_0": 22
          },
          "indices": 23,
          "material": 3,
          "mode": 4
        }
      ]
    },
    {
      "name": "Object_6",
      "primitives": [
        {
          "attributes": {
            "NORMAL": 25,
            "POSITION": 24,
            "TEXCOORD_0": 26
          },
          "indices": 27,
          "material": 3,
          "mode": 4
        }
      ]
    },
    {
      "name": "Object_7",
      "primitives": [
        {
          "attributes": {
            "NORMAL": 29,
            "POSITION": 28,
            "TEXCOORD_0": 30
          },
          "indices": 31,
          "material": 0,
          "mode": 4
        }
      ]
    },
    {
      "name": "Object_8",
      "primitives": [
        {
          "attributes": {
            "NORMAL": 33,
            "POSITION": 32,
            "TEXCOORD_0": 34
          },
          "indices": 35,
          "material": 0,
          "mode": 4
        }
      ]
    },
    {
      "name": "Object_9",
      "primitives": [
        {
          "attributes": {
            "NORMAL": 37,
            "POSITION": 36,
            "TEXCOORD_0": 38
          },
          "indices": 39,
          "material": 4,
          "mode": 4
        }
      ]
    }
  ],
  "nodes": [
    {
      "children": [
        1
      ],
      "matrix": [
        -0.004926326684653759,
        -2.2204190500751194e-16,
        0.9999878406524658,
        0.0,
        0.99998539686203,
        0.0022178303916007267,
        0.00492631457746029,
        0.0,
        -0.002217803616076708,
        0.9999975562095642,
        -1.092579986994302e-05,
        0.0,
        0.5679495334625244,
        -0.00022338070266397412,
        -0.7665989398956299,
        1.0
      ],
      "name": "Sketchfab_model"
    },
    {
      "children": [
        2
      ],
      "name": "root"
    },
    {
      "children": [
        3,
        9,
        12,
        14,
        16
      ],
      "matrix": [
        1.0,
        0.0,
        0.0,
        0.0,
        0.0,
        2.220446049250313e-16,
        1.0,
        0.0,
        0.0,
        -1.0,
        2.220446049250313e-16,
        0.0,
        0.0,
        0.0,
        0.0,
        1.0
      ],
      "name": "GLTF_SceneRootNode"
    },
    {
      "children": [
        4,
        5,
        6,
        7,
        8
      ],
      "matrix": [
        0.5289608240127563,
        0.0,
        0.0,
        0.0,
        0.0,
        0.5289608240127563,
        0.0,
        0.0,
        0.0,
        0.0,
        0.5289608240127563,
        0.0,
        0.0,
        -0.7639310359954834,
        0.0,
        1.0
      ],
      "name": "case_frame_0"
    },
    {
      "mesh": 0,
      "name": "Object_4"
    },
    {
      "mesh": 1,
      "name": "Object_5"
    },
    {
      "mesh": 2,
      "name": "Object_6"
    },
    {
      "mesh": 3,
      "name": "Object_7"
    },
    {
      "mesh": 4,
      "name": "Object_8"
    },
    {
      "children": [
        10,
        11
      ],
      "matrix": [
        1.0,
        0.0,
        0.0,
        0.0,
        0.0,
        1.0,
        0.0,
        0.0,
        0.0,
        0.0,
        1.0,
        0.0,
        0.7489839792251587,
        2.292271375656128,
        4.61173152923584,
        1.0
      ],
      "name": "back_plate_3"
    },
    {
      "mesh": 5,
      "name": "Object_10"
    },
    {
      "mesh": 6,
      "name": "Object_11"
    },
    {
      "children": [
        13
      ],
      "matrix": [
        1.0,
        0.0,
        0.0,
        0.0,
        0.0,
        1.0,
        0.0,
        0.0,
        0.0,
        0.0,
        1.0,
        0.0,
        0.0,
        0.0,
        4.879410266876221,
        1.0
      ],
      "name": "mounting_bracket_4"
    },
    {
      "mesh": 7,
      "name": "Object_13"
    },
    {
      "children": [
        15
      ],
      "matrix": [
        0.08546596765518188,
        0.0,
        0.0,
        0.0,
        0.0,
        0.08546596765518188,
        0.0,
        0.0,
        0.0,
        0.0,
        0.08546596765518188,
        0.0,
        -0.12665320932865143,
        3.618349075317383,
        -2.031318426132202,
        1.0
      ],
      "name": "Cylinder_5"
    },
    {
      "mesh": 8,
      "name": "Object_15"
    },
    {
      "children": [
        17
      ],
      "matrix": [
        0.45285725593566895,
        0.0,
        0.0,
        0.0,
        0.0,
        0.45285725593566895,
        0.0,
        0.0,
        0.0,
        0.0,
        0.45285725593566895,
        0.0,
        2.18464994430542,
        0.5960957407951355,
        -1.847396731376648,
        1.0
      ],
      "name": "interior_frame_6"
    },
    {
      "mesh": 9,
      "name": "Object_17"
    }
  ],
  "scene": 0,
  "scenes": [
    {
      "name": "Sketchfab_Scene",
      "nodes": [
        0
      ]
    }
  ]
}
