{
  "accessors": [
    {
      "bufferView": 2,
      "componentType": 5126,
      "count": 3761,
      "max": [
        0.05108100175857544,
        1.7455719709396362,
        0.671176016330719
      ],
      "min": [
        -0.09655500203371048,
        0.6042799949645996,
        0.09628599882125854
      ],
      "type": "VEC3"
    },
    {
      "bufferView": 2,
      "byteOffset": 45132,
      "componentType": 5126,
      "count": 3761,
      "max": [
        1.0,
        0.0003000000142492354,
        0.0012999989558011293
      ],
      "min": [
        -1.0,
        -0.000999999581836164,
        -0.12399780750274658
      ],
      "type": "VEC3"
    },
    {
      "bufferView": 1,
      "componentType": 5126,
      "count": 3761,
      "max": [
        1.0063339471817017,
        1.200819969177246
      ],
      "min": [
        -0.08090099692344666,
        -0.37428200244903564
      ],
      "type": "VEC2"
    },
    {
      "bufferView": 0,
      "componentType": 5125,
      "count": 14472,
      "type": "SCALAR"
    },
    {
      "bufferView": 2,
      "byteOffset": 90264,
      "componentType": 5126,
      "count": 2719,
      "max": [
        0.03578399866819382,
        -0.12380500137805939,
        0.19777099788188934
      ],
      "min": [
        -0.08299700170755386,
        -1.643206000328064,
        -0.2417760044336319
      ],
      "type": "VEC3"
    },
    {
      "bufferView": 2,
      "byteOffset": 122892,
      "componentType": 5126,
      "count": 2719,
      "max": [
        1.0,
        1.0,
        1.0
      ],
      "min": [
        -1.0,
        -0.003999968059360981,
        -0.9975396990776062
      ],
      "type": "VEC3"
    },
    {
      "bufferView": 1,
      "byteOffset": 30088,
      "componentType": 5126,
      "count": 2719,
      "max": [
        0.9959480166435242,
        0.693219006061554
      ],
      "min": [
        0.028335999697446823,
        0.2784850001335144
      ],
      "type": "VEC2"
    },
    {
      "bufferView": 0,
      "byteOffset": 57888,
      "componentType": 5125,
      "count": 6903,
      "type": "SCALAR"
    },
    {
      "bufferView": 2,
      "byteOffset": 155520,
      "componentType": 5126,
      "count": 14882,
      "max": [
        0.05165800079703331,
        2.132138967514038,
        0.7628679871559143
      ],
      "min": [
        -0.1000019982457161,
        -2.138179063796997,
        -0.3554210066795349
      ],
      "type": "VEC3"
    },
    {
      "bufferView": 2,
      "byteOffset": 334104,
      "componentType": 5126,
      "count": 14882,
      "max": [
        1.0,
        1.0,
        1.0
      ],
      "min": [
        -1.0,
        -1.0,
        -1.0
      ],
      "type": "VEC3"
    },
    {
      "bufferView": 1,
      "byteOffset": 51840,
      "componentType": 5126,
      "count": 14882,
      "max": [
        1.1095149517059326,
        1.0
      ],
      "min": [
        0.0,
        -0.10068400204181671
      ],
      "type": "VEC2"
    },
    {
      "bufferView": 0,
      "byteOffset": 85500,
      "componentType": 5125,
      "count": 19944,
      "type": "SCALAR"
    },
    {
      "bufferView": 2,
      "byteOffset": 512688,
      "componentType": 5126,
      "count": 86,
      "max": [
        0.04968399927020073,
        0.2778730094432831,
        0.24535399675369263
      ],
      "min": [
        -0.0980290025472641,
        -0.19577999413013458,
        0.0159939993172884
      ],
      "type": "VEC3"
    },
    {
      "bufferView": 2,
      "byteOffset": 513720,
      "componentType": 5126,
      "count": 86,
      "max": [
        1.0,
        -0.0,
        0.0
      ],
      "min": [
        -1.0,
        -0.0,
        0.0
      ],
      "type": "VEC3"
    },
    {
      "bufferView": 1,
      "byteOffset": 170896,
      "componentType": 5126,
      "count": 86,
      "max": [
        0.9518849849700928,
        0.5999040007591248
      ],
      "min": [
        0.9090790152549744,
        0.4731389880180359
      ],
      "type": "VEC2"
    },
    {
      "bufferView": 0,
      "byteOffset": 165276,
      "componentType": 5125,
      "count": 246,
      "type": "SCALAR"
    },
    {
      "bufferView": 2,
      "byteOffset": 514752,
      "componentType": 5126,
      "count": 2408,
      "max": [
        0.019432999193668365,
        1.9035450220108032,
        -0.360835999250412
      ],
      "min": [
        0.0024790000170469284,
        -1.8751829862594604,
        -0.38849198818206787
      ],
      "type": "VEC3"
    },
    {
      "bufferView": 2,
      "byteOffset": 543648,
      "componentType": 5126,
      "count": 2408,
      "max": [
        1.0,
        1.0,
        1.0
      ],
      "min": [
        -1.0,
        -1.0,
        -1.0
      ],
      "type": "VEC3"
    },
    {
      "bufferView": 1,
      "byteOffset": 171584,
      "componentType": 5126,
      "count": 2408,
      "max": [
        0.875,
        1.0
      ],
      "min": [
        0.125,
        0.0
      ],
      "type": "VEC2"
    },
    {
      "bufferView": 0,
      "byteOffset": 166260,
      "componentType": 5125,
      "count": 3864,
      "type": "SCALAR"
    },
    {
      "bufferView": 2,
      "byteOffset": 572544,
      "componentType": 5126,
      "count": 374,
      "max": [
        0.0464400015771389,
        1.314188003540039,
        0.7589430212974548
      ],
      "min": [
        -0.09478399902582169,
        -0.15414799749851227,
        0.5469809770584106
      ],
      "type": "VEC3"
    },
    {
      "bufferView": 2,
      "byteOffset": 577032,
      "componentType": 5126,
      "count": 374,
      "max": [
        1.0,
        0.7954776287078857,
        1.0
      ],
      "min": [
        -1.0,
        -0.9994487762451172,
        -1.0
      ],
      "type": "VEC3"
    },
    {
      "bufferView": 1,
      "byteOffset": 190848,
      "componentType": 5126,
      "count": 374,
      "max": [
        1.0970280170440674,
        0.9482269883155823
      ],
      "min": [
        0.6946200132369995,
        -0.09199699759483337
      ],
      "type": "VEC2"
    },
    {
      "bufferView": 0,
      "byteOffset": 181716,
      "componentType": 5125,
      "count": 522,
      "type": "SCALAR"
    },
    {
      "bufferView": 2,
      "byteOffset": 581520,
      "componentType": 5126,
      "count": 40,
      "max": [
        0.0,
        2.0145139694213867,
        -0.4043329954147339
      ],
      "min": [
        -0.05000000074505806,
        -2.0145139694213867,
        -0.5360230207443237
      ],
      "type": "VEC3"
    },
    {
      "bufferView": 2,
      "byteOffset": 582000,
      "componentType": 5126,
      "count": 40,
      "max": [
        1.0,
        1.0,
        0.0
      ],
      "min": [
        -1.0,
        -1.0,
        -0.4504905641078949
      ],
      "type": "VEC3"
    },
    {
      "bufferView": 1,
      "byteOffset": 193840,
      "componentType": 5126,
      "count": 40,
      "max": [
        0.9404829740524292,
        1.5638270378112793
      ],
      "min": [
        0.1636829972267151,
        -0.5607270002365112
      ],
      "type": "VEC2"
    },
    {
      "bufferView": 0,
      "byteOffset": 183804,
      "componentType": 5125,
      "count": 84,
      "type": "SCALAR"
    },
    {
      "bufferView": 2,
      "byteOffset": 582480,
      "componentType": 5126,
      "count": 308,
      "max": [
        -0.0,
        2.1416659355163574,
        -0.4081299901008606
      ],
      "min": [
        -0.05000000074505806,
        -2.1416659355163574,
        -0.5360230207443237
      ],
      "type": "VEC3"
    },
    {
      "bufferView": 2,
      "byteOffset": 586176,
      "componentType": 5126,
      "count": 308,
      "max": [
        1.0,
        1.0,
        1.0
      ],
      "min": [
        -1.0,
        -1.0,
        -1.0
      ],
      "type": "VEC3"
    },
    {
      "bufferView": 1,
      "byteOffset": 194160,
      "componentType": 5126,
      "count": 308,
      "max": [
        0.9599869847297668,
        1.6308759450912476
      ],
      "min": [
        0.1636829972267151,
        -0.627776026725769
      ],
      "type": "VEC2"
    },
    {
      "bufferView": 0,
      "byteOffset": 184140,
      "componentType": 5125,
      "count": 852,
      "type": "SCALAR"
    },
    {
      "bufferView": 2,
      "byteOffset": 589872,
      "componentType": 5126,
      "count": 1584,
      "max": [
        0.05998900160193443,
        1.6974589824676514,
        0.03449900075793266
      ],
      "min": [
        -0.10833299905061722,
        0.6137070059776306,
        -0.06402400135993958
      ],
      "type": "VEC3"
    },
    {
      "bufferView": 2,
      "byteOffset": 608880,
      "componentType": 5126,
      "count": 1584,
      "max": [
        1.0,
        1.0,
        1.0
      ],
      "min": [
        -1.0,
        -1.0,
        -1.0
      ],
      "type": "VEC3"
    },
    {
      "bufferView": 3,
      "componentType": 5126,
      "count": 1584,
      "max": [
        1.0,
        0.7077844142913818,
        1.0,
        1.0
      ],
      "min": [
        -1.0,
        -0.7071067690849304,
        -1.0,
        -1.0
      ],
      "type": "VEC4"
    },
    {
      "bufferView": 1,
      "byteOffset": 196624,
      "componentType": 5126,
      "count": 1584,
      "max": [
        1.0,
        1.0
      ],
      "min": [
        0.0,
        0.0
      ],
      "type": "VEC2"
    },
    {
      "bufferView": 0,
      "byteOffset": 187548,
      "componentType": 5125,
      "count": 3024,
      "type": "SCALAR"
    },
    {
      "bufferView": 2,
      "byteOffset": 627888,
      "componentType": 5126,
      "count": 416,
      "max": [
        -0.0,
        2.1416659355163574,
        0.511771023273468
      ],
      "min": [
        -0.05000000074505806,
        -2.1416659355163574,
        -0.5360230207443237
      ],
      "type": "VEC3"
    },
    {
      "bufferView": 2,
      "byteOffset": 632880,
      "componentType": 5126,
      "count": 416,
      "max": [
        1.0,
        1.0,
        1.0
      ],
      "min": [
        -1.0,
        -1.0,
        -1.0
      ],
      "type": "VEC3"
    },
    {
      "bufferView": 1,
      "byteOffset": 209296,
      "componentType": 5126,
      "count": 416,
      "max": [
        0.958948016166687,
        1.6308759450912476
      ],
      "min": [
        -0.35575100779533386,
        -0.627776026725769
      ],
      "type": "VEC2"
    },
    {
      "bufferView": 0,
      "byteOffset": 199644,
      "componentType": 5125,
      "count": 852,
      "type": "SCALAR"
    }
  ],
  "asset": {
    "extras": {
      "author": "Astrien (https://sketchfab.com/Astrien)",
      "license": "CC-BY-4.0 (http://creativecommons.org/licenses/by/4.0/)",
      "source": "https://sketchfab.com/3d-models/kingston-hyperx-fury-black-ram-module-3d9499b5337f475d8bbb1eccdb20e73d",
      "title": "Kingston HyperX Fury Black RAM Module"
    },
    "generator": "Sketchfab-12.66.0",
    "version": "2.0"
  },
  "bufferViews": [
    {
      "buffer": 0,
      "byteLength": 203052,
      "name": "floatBufferViews",
      "target": 34963
    },
    {
      "buffer": 0,
      "byteLength": 212624,
      "byteOffset": 203052,
      "byteStride": 8,
      "name": "floatBufferViews",
      "target": 34962
    },
    {
      "buffer": 0,
      "byteLength": 637872,
      "byteOffset": 415676,
      "byteStride": 12,
      "name": "floatBufferViews",
      "target": 34962
    },
    {
      "buffer": 0,
      "byteLength": 25344,
      "byteOffset": 1053548,
      "byteStride": 16,
      "name": "floatBufferViews",
      "target": 34962
    }
  ],
  "buffers": [
    {
      "byteLength": 1078892,
      "uri": "scene.bin"
    }
  ],
  "images": [
    {
      "uri": "textures/Material.002_baseColor.png"
    },
    {
      "uri": "textures/Material.003_baseColor.png"
    },
    {
      "uri": "textures/Material.003_metallicRoughness.png"
    },
    {
      "uri": "textures/Material.004_metallicRoughness.png"
    },
    {
      "uri": "textures/Material.009_baseColor.jpeg"
    },
    {
      "uri": "textures/Material.010_baseColor.png"
    },
    {
      "uri": "textures/Material.013_metallicRoughness.png"
    },
    {
      "uri": "textures/Material.013_normal.png"
    }
  ],
  "materials": [
    {
      "doubleSided": true,
      "name": "Material.001",
      "pbrMetallicRoughness": {
        "baseColorFactor": [
          0.8,
          0.8,
          0.8,
          1.0
        ],
        "metallicFactor": 0.0
      }
    },
    {
      "doubleSided": true,
      "name": "Material.002",
      "pbrMetallicRoughness": {
        "baseColorTexture": {
          "index": 0
        },
        "metallicFactor": 0.75,
        "roughnessFactor": 0.1
      }
    },
    {
      "doubleSided": true,
      "name": "Material.003",
      "occlusionTexture": {
        "index": 2
      },
      "pbrMetallicRoughness": {
        "baseColorFactor": [
          0.17195489727547442,
          0.17195489727547442,
          0.17195489727547442,
          1.0
        ],
        "baseColorTexture": {
          "index": 1
        },
        "metallicRoughnessTexture": {
          "index": 2
        },
        "roughnessFactor": 0.5
      }
    },
    {
      "doubleSided": true,
      "name": "Material.004",
      "pbrMetallicRoughness": {
        "baseColorFactor": [
          0.08075229982549903,
          0.08075229982549903,
          0.08075229982549903,
          1.0
        ],
        "baseColorTexture": {
          "index": 1
        },
        "metallicRoughnessTexture": {
          "index": 3
        },
        "roughnessFactor": 0.5
      }
    },
    {
      "doubleSided": true,
      "name": "Material.006",
      "pbrMetallicRoughness": {
        "baseColorFactor": [
          0.8,
          0.8,
          0.8,
          1.0
        ],
        "metallicFactor": 0.0,
        "roughnessFactor": 0.4896851806677796
      }
    },
    {
      "doubleSided": true,
      "name": "Material.008",
      "pbrMetallicRoughness": {
        "baseColorFactor": [
          0.4,
          0.4,
          0.4,
          1.0
        ],
        "baseColorTexture": {
          "index": 1
        },
        "metallicRoughnessTexture": {
          "index": 3
        },
        "roughnessFactor": 0.5
      }
    },
    {
      "doubleSided": true,
      "name": "Material.009",
      "pbrMetallicRoughness": {
        "baseColorTexture": {
          "index": 4
        },
        "metallicFactor": 0.25,
        "roughnessFactor": 0.5
      }
    },
    {
      "doubleSided": true,
      "name": "Material.010",
      "pbrMetallicRoughness": {
        "baseColorTexture": {
          "index": 5
        },
        "roughnessFactor": 0.6127016653792583
      }
    },
    {
      "doubleSided": true,
      "name": "Material.012",
      "pbrMetallicRoughness": {
        "baseColorFactor": [
          0.42808864491572235,
          0.29474296210735335,
          0.05929190820996662,
          1.0
        ],
        "roughnessFactor": 0.2
      }
    },
    {
      "doubleSided": true,
      "name": "Material.013",
      "normalTexture": {
        "index": 7
      },
      "pbrMetallicRoughness": {
        "baseColorFactor": [
          0.039546,
          0.039546,
          0.039546,
          1.0
        ],
        "metallicFactor": 0.0,
        "metallicRoughnessTexture": {
          "index": 6
        }
      }
    }
  ],
  "meshes": [
    {
      "name": "Object_0",
      "primitives": [
        {
          "attributes": {
            "NORMAL": 1,
            "POSITION": 0,
            "TEXCOORD_0": 2
          },
          "indices": 3,
          "material": 0,
          "mode": 4
        }
      ]
    },
    {
      "name": "Object_1",
      "primitives": [
        {
          "attributes": {
            "NORMAL": 5,
            "POSITION": 4,
            "TEXCOORD_0": 6
          },
          "indices": 7,
          "material": 1,
          "mode": 4
        }
      ]
    },
    {
      "name": "Object_2",
      "primitives": [
        {
          "attributes": {
            "NORMAL": 9,
            "POSITION": 8,
            "TEXCOORD_0": 10
          },
          "indices": 11,
          "material": 2,
          "mode": 4
        }
      ]
    },
    {
      "name": "Object_3",
      "primitives": [
        {
          "attributes": {
            "NORMAL": 13,
            "POSITION": 12,
            "TEXCOORD_0": 14
          },
          "indices": 15,
          "material": 3,
          "mode": 4
        }
      ]
    },
    {
      "name": "Object_4",
      "primitives": [
        {
          "attributes": {
            "NORMAL": 17,
            "POSITION": 16,
            "TEXCOORD_0": 18
          },
          "indices": 19,
          "material": 4,
          "mode": 4
        }
      ]
    },
    {
      "name": "Object_5",
      "primitives": [
        {
          "attributes": {
            "NORMAL": 21,
            "POSITION": 20,
            "TEXCOORD_0": 22
          },
          "indices": 23,
          "material": 5,
          "mode": 4
        }
      ]
    },
    {
      "name": "Object_6",
      "primitives": [
        {
          "attributes": {
            "NORMAL": 25,
            "POSITION": 24,
            "TEXCOORD_0": 26
          },
          "indices": 27,
          "material": 7,
          "mode": 4
        }
      ]
    },
    {
      "name": "Object_7",
      "primitives": [
        {
          "attributes": {
            "NORMAL": 29,
            "POSITION": 28,
            "TEXCOORD_0": 30
          },
          "indices": 31,
          "material": 8,
          "mode": 4
        }
      ]
    },
    {
      "name": "Object_8",
      "primitives": [
        {
          "attributes": {
            "NORMAL": 33,
            "POSITION": 32,
            "TANGENT": 34,
            "TEXCOORD_0": 35
          },
          "indices": 36,
          "material": 9,
          "mode": 4
        }
      ]
    },
    {
      "name": "Object_9",
      "primitives": [
        {
          "attributes": {
            "NORMAL": 38,
            "POSITION": 37,
            "TEXCOORD_0": 39
          },
          "indices": 40,
          "material": 6,
          "mode": 4
        }
      ]
    }
  ],
  "nodes": [
    {
      "children": [
        1
      ],
      "matrix": [
        -0.9999998807907104,
        9.576633781748954e-20,
        -0.00043129324330948293,
        0.0,
        -0.00043129324330948293,
        -2.220445784552517e-16,
        0.9999998807907104,
        0.0,
        0.0,
        1.0,
        2.220446049250313e-16,
        0.0,
        -0.04834405332803726,
        1.2031358165455126e-21,
        -5.418442015070468e-06,
        1.0
      ],
      "name": "Sketchfab_model"
    },
    {
      "children": [
        2,
        3,
        4,
        5,
        6,
        7,
        8,
        9,
        10,
        11
      ],
      "name": "RAMtriangulated.obj.cleaner.materialmerger.gles"
    },
    {
      "mesh": 0,
      "name": "Object_2"
    },
    {
      "mesh": 1,
      "name": "Object_3"
    },
    {
      "mesh": 2,
      "name": "Object_4"
    },
    {
      "mesh": 3,
      "name": "Object_5"
    },
    {
      "mesh": 4,
      "name": "Object_6"
    },
    {
      "mesh": 5,
      "name": "Object_7"
    },
    {
      "mesh": 6,
      "name": "Object_8"
    },
    {
      "mesh": 7,
      "name": "Object_9"
    },
    {
      "mesh": 8,
      "name": "Object_10"
    },
    {
      "mesh": 9,
      "name": "Object_11"
    }
  ],
  "samplers": [
    {
      "magFilter": 9729,
      "minFilter": 9987,
      "wrapS": 10497,
      "wrapT": 10497
    }
  ],
  "scene": 0,
  "scenes": [
    {
      "name": "Sketchfab_Scene",
      "nodes": [
        0
      ]
    }
  ],
  "textures": [
    {
      "sampler": 0,
      "source": 0
    },
    {
      "sampler": 0,
      "source": 1
    },
    {
      "sampler": 0,
      "source": 2
    },
    {
      "sampler": 0,
      "source": 3
    },
    {
      "sampler": 0,
      "source": 4
    },
    {
      "sampler": 0,
      "source": 5
    },
    {
      "sampler": 0,
      "source": 6
    },
    {
      "sampler": 0,
      "source": 7
    }
  ]
}
