{
  "accessors": [
    {
      "bufferView": 2,
      "componentType": 5126,
      "count": 1940,
      "max": [
        0.6243640184402466,
        0.9163320064544678,
        1.1795530319213867
      ],
      "min": [
        0.2442059963941574,
        -0.923160970211029,
        -0.6626269817352295
      ],
      "type": "VEC3"
    },
    {
      "bufferView": 2,
      "byteOffset": 23280,
      "componentType": 5126,
      "count": 1940,
      "max": [
        1.0,
        1.0,
        1.0
      ],
      "min": [
        -0.916443407535553,
        -1.0,
        -1.0
      ],
      "type": "VEC3"
    },
    {
      "bufferView": 3,
      "componentType": 5126,
      "count": 1940,
      "max": [
        1.0,
        0.995796263217926,
        0.9960100054740906,
        1.0
      ],
      "min": [
        -1.0,
        -0.9947027564048767,
        -0.9999990463256836,
        -1.0
      ],
      "type": "VEC4"
    },
    {
      "bufferView": 1,
      "componentType": 5126,
      "count": 1940,
      "max": [
        0.9755730032920837,
        1.0
      ],
      "min": [
        0.0,
        0.0
      ],
      "type": "VEC2"
    },
    {
      "bufferView": 0,
      "componentType": 5125,
      "count": 6402,
      "type": "SCALAR"
    },
    {
      "bufferView": 2,
      "byteOffset": 46560,
      "componentType": 5126,
      "count": 19504,
      "max": [
        0.19754600524902344,
        0.9053379893302917,
        1.1192020177841187
      ],
      "min": [
        -0.5136929750442505,
        -0.8802260160446167,
        -0.5933820009231567
      ],
      "type": "VEC3"
    },
    {
      "bufferView": 2,
      "byteOffset": 280608,
      "componentType": 5126,
      "count": 19504,
      "max": [
        1.0,
        0.9999939203262329,
        1.0
      ],
      "min": [
        -1.0,
        -1.0,
        -1.0
      ],
      "type": "VEC3"
    },
    {
      "bufferView": 3,
      "byteOffset": 31040,
      "componentType": 5126,
      "count": 19504,
      "max": [
        1.0,
        1.0,
        1.0,
        1.0
      ],
      "min": [
        -1.0,
        -1.0,
        -1.0,
        1.0
      ],
      "type": "VEC4"
    },
    {
      "bufferView": 1,
      "byteOffset": 15520,
      "componentType": 5126,
      "count": 19504,
      "max": [
        0.9179800152778625,
        1.0
      ],
      "min": [
        0.0,
        0.0
      ],
      "type": "VEC2"
    },
    {
      "bufferView": 0,
      "byteOffset": 25608,
      "componentType": 5125,
      "count": 37200,
      "type": "SCALAR"
    },
    {
      "bufferView": 2,
      "byteOffset": 514656,
      "componentType": 5126,
      "count": 5676,
      "max": [
        0.33382800221443176,
        0.7850009799003601,
        1.2445099353790283
      ],
      "min": [
        -0.5983399748802185,
        -0.734483003616333,
        -1.2356699705123901
      ],
      "type": "VEC3"
    },
    {
      "bufferView": 2,
      "byteOffset": 582768,
      "componentType": 5126,
      "count": 5676,
      "max": [
        1.0,
        1.0,
        1.0
      ],
      "min": [
        -1.0,
        -1.0,
        -1.0
      ],
      "type": "VEC3"
    },
    {
      "bufferView": 3,
      "byteOffset": 343104,
      "componentType": 5126,
      "count": 5676,
      "max": [
        0.9999997019767761,
        1.0,
        1.0,
        1.0
      ],
      "min": [
        -1.0,
        -0.9999995231628418,
        -1.0,
        -1.0
      ],
      "type": "VEC4"
    },
    {
      "bufferView": 1,
      "byteOffset": 171552,
      "componentType": 5126,
      "count": 5676,
      "max": [
        0.9899920225143433,
        1.0
      ],
      "min": [
        -0.0,
        -0.0
      ],
      "type": "VEC2"
    },
    {
      "bufferView": 0,
      "byteOffset": 174408,
      "componentType": 5125,
      "count": 21564,
      "type": "SCALAR"
    },
    {
      "bufferView": 2,
      "byteOffset": 650880,
      "componentType": 5126,
      "count": 2117,
      "max": [
        0.6188420057296753,
        0.9944260120391846,
        1.2415000200271606
      ],
      "min": [
        0.19612999260425568,
        -0.9969180226325989,
        -0.7159289717674255
      ],
      "type": "VEC3"
    },
    {
      "bufferView": 2,
      "byteOffset": 676284,
      "componentType": 5126,
      "count": 2117,
      "max": [
        1.0,
        1.0,
        1.0
      ],
      "min": [
        -1.0,
        -1.0,
        -1.0
      ],
      "type": "VEC3"
    },
    {
      "bufferView": 3,
      "byteOffset": 433920,
      "componentType": 5126,
      "count": 2117,
      "max": [
        1.0,
        0.9968984127044678,
        0.9978303909301758,
        1.0
      ],
      "min": [
        -1.0,
        -0.9968984127044678,
        -1.0,
        1.0
      ],
      "type": "VEC4"
    },
    {
      "bufferView": 1,
      "byteOffset": 216960,
      "componentType": 5126,
      "count": 2117,
      "max": [
        1.0,
        0.9826589822769165
      ],
      "min": [
        0.0,
        0.0
      ],
      "type": "VEC2"
    },
    {
      "bufferView": 0,
      "byteOffset": 260664,
      "componentType": 5125,
      "count": 5376,
      "type": "SCALAR"
    },
    {
      "bufferView": 2,
      "byteOffset": 701688,
      "componentType": 5126,
      "count": 8945,
      "max": [
        0.6371579766273499,
        1.0321160554885864,
        1.1240290403366089
      ],
      "min": [
        -0.14495199918746948,
        -1.034608006477356,
        -0.5984579920768738
      ],
      "type": "VEC3"
    },
    {
      "bufferView": 2,
      "byteOffset": 809028,
      "componentType": 5126,
      "count": 8945,
      "max": [
        1.0,
        1.0,
        0.999985933303833
      ],
      "min": [
        -1.0,
        -1.0,
        -1.0
      ],
      "type": "VEC3"
    },
    {
      "bufferView": 3,
      "byteOffset": 467792,
      "componentType": 5126,
      "count": 8945,
      "max": [
        0.9999391436576843,
        0.9999997019767761,
        0.9999947547912598,
        1.0
      ],
      "min": [
        -0.9999899864196777,
        -1.0,
        -0.9994720220565796,
        1.0
      ],
      "type": "VEC4"
    },
    {
      "bufferView": 1,
      "byteOffset": 233896,
      "componentType": 5126,
      "count": 8945,
      "max": [
        0.9546849727630615,
        1.0
      ],
      "min": [
        0.0,
        0.0
      ],
      "type": "VEC2"
    },
    {
      "bufferView": 0,
      "byteOffset": 282168,
      "componentType": 5125,
      "count": 34320,
      "type": "SCALAR"
    }
  ],
  "asset": {
    "extras": {
      "author": "wanderer (https://sketchfab.com/wanderer2)",
      "license": "CC-BY-4.0 (http://creativecommons.org/licenses/by/4.0/)",
      "source": "https://sketchfab.com/3d-models/hyper-212-spectrum-83ee9f97dd5646bfbbba60fd68563f96",
      "title": "HYPER 212 SPECTRUM"
    },
    "generator": "Sketchfab-15.83.0",
    "version": "2.0"
  },
  "bufferViews": [
    {
      "buffer": 0,
      "byteLength": 419448,
      "name": "floatBufferViews",
      "target": 34963
    },
    {
      "buffer": 0,
      "byteLength": 305456,
      "byteOffset": 419448,
      "byteStride": 8,
      "name": "floatBufferViews",
      "target": 34962
    },
    {
      "buffer": 0,
      "byteLength": 916368,
      "byteOffset": 724904,
      "byteStride": 12,
      "name": "floatBufferViews",
      "target": 34962
    },
    {
      "buffer": 0,
      "byteLength": 610912,
      "byteOffset": 1641272,
      "byteStride": 16,
      "name": "floatBufferViews",
      "target": 34962
    }
  ],
  "buffers": [
    {
      "byteLength": 2252184,
      "uri": "scene.bin"
    }
  ],
  "images": [
    {
      "uri": "textures/material_baseColor.png"
    },
    {
      "uri": "textures/material_metallicRoughness.png"
    },
    {
      "uri": "textures/material_normal.png"
    },
    {
      "uri": "textures/fan_coller_baseColor.png"
    },
    {
      "uri": "textures/fan_coller_metallicRoughness.png"
    },
    {
      "uri": "textures/fan_coller_normal.png"
    },
    {
      "uri": "textures/fan_down_baseColor.png"
    },
    {
      "uri": "textures/fan_down_metallicRoughness.png"
    },
    {
      "uri": "textures/fan_down_normal.png"
    },
    {
      "uri": "textures/fan_frame_baseColor.png"
    },
    {
      "uri": "textures/fan_frame_metallicRoughness.png"
    },
    {
      "uri": "textures/fan_frame_normal.png"
    },
    {
      "uri": "textures/fan_holder_baseColor.png"
    },
    {
      "uri": "textures/fan_holder_metallicRoughness.png"
    },
    {
      "uri": "textures/fan_holder_normal.png"
    }
  ],
  "materials": [
    {
      "doubleSided": true,
      "name": "material",
      "normalTexture": {
        "index": 2
      },
      "occlusionTexture": {
        "index": 1
      },
      "pbrMetallicRoughness": {
        "baseColorTexture": {
          "index": 0
        },
        "metallicRoughnessTexture": {
          "index": 1
        },
        "roughnessFactor": 0.4551720601971431
      }
    },
    {
      "doubleSided": true,
      "name": "fan_coller",
      "normalTexture": {
        "index": 5
      },
      "occlusionTexture": {
        "index": 4
      },
      "pbrMetallicRoughness": {
        "baseColorTexture": {
          "index": 3
        },
        "metallicRoughnessTexture": {
          "index": 4
        }
      }
    },
    {
      "doubleSided": true,
      "name": "fan_down",
      "normalTexture": {
        "index": 8
      },
      "occlusionTexture": {
        "index": 7
      },
      "pbrMetallicRoughness": {
        "baseColorTexture": {
          "index": 6
        },
        "metallicRoughnessTexture": {
          "index": 7
        }
      }
    },
    {
      "doubleSided": true,
      "name": "fan_frame",
      "normalTexture": {
        "index": 11
      },
      "occlusionTexture": {
        "index": 10
      },
      "pbrMetallicRoughness": {
        "baseColorTexture": {
          "index": 9
        },
        "metallicRoughnessTexture": {
          "index": 10
        }
      }
    },
    {
      "doubleSided": true,
      "name": "fan_holder",
      "normalTexture": {
        "index": 14
      },
      "occlusionTexture": {
        "index": 13
      },
      "pbrMetallicRoughness": {
        "baseColorTexture": {
          "index": 12
        },
        "metallicRoughnessTexture": {
          "index": 13
        }
      }
    }
  ],
  "meshes": [
    {
      "name": "Object_0",
      "primitives": [
        {
          "attributes": {
            "NORMAL": 1,
            "POSITION": 0,
            "TANGENT": 2,
            "TEXCOORD_0": 3
          },
          "indices": 4,
          "material": 0,
          "mode": 4
        }
      ]
    },
    {
      "name": "Object_1",
      "primitives": [
        {
          "attributes": {
            "NORMAL": 6,
            "POSITION": 5,
            "TANGENT": 7,
            "TEXCOORD_0": 8
          },
          "indices": 9,
          "material": 1,
          "mode": 4
        }
      ]
    },
    {
      "name": "Object_2",
      "primitives": [
        {
          "attributes": {
            "NORMAL": 11,
            "POSITION": 10,
            "TANGENT": 12,
            "TEXCOORD_0": 13
          },
          "indices": 14,
          "material": 2,
          "mode": 4
        }
      ]
    },
    {
      "name": "Object_3",
      "primitives": [
        {
          "attributes": {
            "NORMAL": 16,
            "POSITION": 15,
            "TANGENT": 17,
            "TEXCOORD_0": 18
          },
          "indices": 19,
          "material": 3,
          "mode": 4
        }
      ]
    },
    {
      "name": "Object_4",
      "primitives": [
        {
          "attributes": {
            "NORMAL": 21,
            "POSITION": 20,
            "TANGENT": 22,
            "TEXCOORD_0": 23
          },
          "indices": 24,
          "material": 4,
          "mode": 4
        }
      ]
    }
  ],
  "nodes": [
    {
      "children": [
        1
      ],
      "matrix": [
        1.0,
        0.0,
        0.0,
        0.0,
        0.0,
        2.220446049250313e-16,
        -1.0,
        0.0,
        0.0,
        1.0,
        2.220446049250313e-16,
        0.0,
        0.0,
        0.0,
        0.0,
        1.0
      ],
      "name": "Sketchfab_model"
    },
    {
      "children": [
        2,
        3,
        4,
        5,
        6
      ],
      "name": "HYPER 212 SPECTRUM.obj.cleaner.materialmerger.gles"
    },
    {
      "mesh": 0,
      "name": "Object_2"
    },
    {
      "mesh": 1,
      "name": "Object_3"
    },
    {
      "mesh": 2,
      "name": "Object_4"
    },
    {
      "mesh": 3,
      "name": "Object_5"
    },
    {
      "mesh": 4,
      "name": "Object_6"
    }
  ],
  "samplers": [
    {
      "magFilter": 9729,
      "minFilter": 9987,
      "wrapS": 10497,
      "wrapT": 10497
    }
  ],
  "scene": 0,
  "scenes": [
    {
      "name": "Sketchfab_Scene",
      "nodes": [
        0
      ]
    }
  ],
  "textures": [
    {
      "sampler": 0,
      "source": 0
    },
    {
      "sampler": 0,
      "source": 1
    },
    {
      "sampler": 0,
      "source": 2
    },
    {
      "sampler": 0,
      "source": 3
    },
    {
      "sampler": 0,
      "source": 4
    },
    {
      "sampler": 0,
      "source": 5
    },
    {
      "sampler": 0,
      "source": 6
    },
    {
      "sampler": 0,
      "source": 7
    },
    {
      "sampler": 0,
      "source": 8
    },
    {
      "sampler": 0,
      "source": 9
    },
    {
      "sampler": 0,
      "source": 10
    },
    {
      "sampler": 0,
      "source": 11
    },
    {
      "sampler": 0,
      "source": 12
    },
    {
      "sampler": 0,
      "source": 13
    },
    {
      "sampler": 0,
      "source": 14
    }
  ]
}
